<?xml version="1.0" standalone="no"?>
<!DOCTYPE svg PUBLIC "-//W3C//DTD SVG 20010904//EN"
 "http://www.w3.org/TR/2001/REC-SVG-20010904/DTD/svg10.dtd">
<svg version="1.0" xmlns="http://www.w3.org/2000/svg"
 width="260.000000pt" height="260.000000pt" viewBox="0 0 260.000000 260.000000"
 preserveAspectRatio="xMidYMid meet">
<metadata>
Created by potrace 1.14, written by Peter Selinger 2001-2017
</metadata>
<g transform="translate(0.000000,260.000000) scale(0.100000,-0.100000)"
fill="#000000" stroke="none">
<path d="M40 2427 l0 -133 139 -23 c193 -31 357 -49 484 -53 l108 -3 74 169
c41 93 75 171 75 173 0 1 -198 3 -440 3 l-440 0 0 -133z"/>
<path d="M954 2525 c-8 -19 -41 -96 -75 -171 -33 -75 -58 -138 -56 -140 3 -4
36 67 123 269 18 42 31 77 28 77 -3 0 -12 -16 -20 -35z"/>
<path d="M982 2533 c-6 -16 -39 -94 -75 -175 -36 -82 -62 -148 -58 -148 4 0
41 75 81 168 40 92 75 170 77 175 2 4 0 7 -5 7 -6 0 -15 -12 -20 -27z"/>
<path d="M951 2390 c-41 -94 -71 -173 -68 -176 7 -8 19 16 98 194 37 83 62
152 56 152 -7 0 -45 -77 -86 -170z"/>
<path d="M1000 2418 c-98 -224 -92 -208 -77 -208 8 0 40 60 77 143 96 216 93
207 76 207 -8 0 -39 -58 -76 -142z"/>
<path d="M1035 2399 c-38 -88 -72 -165 -74 -171 -2 -5 5 -8 14 -6 16 3 47 63
135 271 25 58 27 67 12 67 -12 0 -36 -44 -87 -161z"/>
<path d="M1088 2408 c-88 -202 -84 -188 -61 -188 16 0 34 33 91 164 40 91 72
167 72 170 0 3 -8 6 -18 6 -13 0 -34 -38 -84 -152z"/>
<path d="M1205 2545 c-84 -184 -141 -321 -135 -323 24 -9 50 27 98 136 43 97
53 128 50 163 -3 36 -5 40 -13 24z"/>
<path d="M1281 2544 c0 -11 3 -14 6 -6 3 7 2 16 -1 19 -3 4 -6 -2 -5 -13z"/>
<path d="M1300 2535 c0 -14 2 -25 4 -25 2 0 6 11 8 25 3 14 1 25 -3 25 -5 0
-9 -11 -9 -25z"/>
<path d="M1325 2503 c-3 -32 -8 -76 -11 -98 -4 -29 -2 -36 5 -25 6 8 13 40 16
70 3 30 8 67 10 83 3 15 0 27 -5 27 -4 0 -11 -26 -15 -57z"/>
<path d="M1358 2528 c-3 -66 -7 -105 -16 -183 -10 -80 -8 -101 7 -76 10 16 24
178 17 189 -3 5 1 30 9 55 12 41 12 47 0 47 -10 0 -16 -12 -17 -32z"/>
<path d="M1399 2533 c-6 -16 -12 -71 -14 -123 -2 -52 -7 -106 -11 -119 -5 -18
-4 -23 7 -19 9 3 15 22 16 54 1 27 8 91 16 142 14 90 7 120 -14 65z"/>
<path d="M1435 2516 c-4 -25 -4 -49 -1 -54 3 -6 2 -21 -3 -34 -5 -12 -12 -51
-16 -85 -6 -52 -4 -63 8 -63 15 0 20 20 32 145 5 43 3 56 -4 45 -17 -24 -14 9
4 40 18 32 19 50 1 50 -10 0 -17 -16 -21 -44z"/>
<path d="M1597 2540 c-3 -11 -1 -20 4 -20 5 0 9 9 9 20 0 11 -2 20 -4 20 -2 0
-6 -9 -9 -20z"/>
<path d="M1620 2539 c0 -11 5 -17 10 -14 6 3 10 13 10 21 0 8 -4 14 -10 14 -5
0 -10 -9 -10 -21z"/>
<path d="M1650 2549 c0 -5 5 -7 10 -4 6 3 10 8 10 11 0 2 -4 4 -10 4 -5 0 -10
-5 -10 -11z"/>
<path d="M1688 2547 c-12 -29 -10 -83 3 -70 6 6 9 28 7 49 -2 29 -5 34 -10 21z"/>
<path d="M1720 2529 c0 -27 2 -30 15 -19 8 7 15 21 15 31 0 11 -7 19 -15 19
-10 0 -15 -10 -15 -31z"/>
<path d="M1785 2550 c-13 -20 -18 -110 -6 -110 13 0 13 -1 15 68 3 54 1 59 -9
42z"/>
<path d="M1810 2519 c0 -36 2 -40 15 -29 8 7 15 25 15 41 0 19 -5 29 -15 29
-11 0 -15 -11 -15 -41z"/>
<path d="M1850 2546 c0 -8 10 -16 22 -18 15 -2 25 -13 32 -36 6 -21 14 -31 22
-28 17 6 34 -24 34 -57 0 -21 4 -24 21 -20 26 7 39 -11 39 -55 0 -29 2 -31 18
-23 26 14 42 -5 41 -43 -2 -27 -2 -28 -6 -6 -8 50 -12 54 -33 35 -16 -15 -20
-31 -20 -88 0 -64 1 -68 17 -56 9 8 24 28 35 44 l18 30 0 -45 c-1 -36 -3 -42
-11 -27 -10 17 -12 17 -33 -5 -28 -28 -47 -138 -24 -138 9 0 10 -3 2 -8 -7 -4
-14 -61 -19 -144 -6 -115 -10 -138 -24 -142 -59 -18 -174 -45 -214 -51 -31 -4
-47 -11 -44 -18 3 -7 11 -11 18 -9 8 2 11 0 7 -3 -11 -11 10 -45 28 -45 8 0
13 -4 10 -9 -3 -5 1 -14 9 -21 12 -10 15 -10 16 1 1 8 4 1 8 -16 6 -28 9 -30
51 -28 44 2 44 1 13 -8 -18 -5 -33 -11 -33 -14 0 -2 36 -48 81 -102 44 -54 92
-113 107 -132 15 -18 52 -63 82 -100 86 -103 109 -146 56 -106 -11 8 -14 15
-8 15 10 0 10 5 2 20 -15 28 -25 25 -26 -7 -1 -16 -7 -48 -14 -73 -27 -102 1
-273 96 -580 25 -80 46 -163 47 -185 2 -37 0 -40 -23 -39 -22 1 -21 -2 19 -37
24 -22 40 -39 35 -39 -4 0 7 -15 25 -34 18 -19 28 -36 23 -40 -6 -3 -19 5 -29
18 -28 36 -345 410 -357 421 -6 6 -24 27 -39 48 -23 31 -31 36 -43 26 -12 -10
-14 -7 -12 12 2 15 -3 24 -14 27 -14 3 -18 -3 -19 -25 -1 -24 -2 -22 -10 11
-5 22 -7 44 -5 50 2 6 5 3 5 -6 1 -10 8 -18 18 -18 14 0 14 2 -2 20 -25 28
-29 26 -42 -22 -9 -35 -8 -72 8 -193 11 -82 23 -172 28 -200 5 -27 5 -57 1
-65 -5 -9 -11 22 -15 78 -4 51 -12 92 -17 92 -5 0 -6 5 -3 10 10 16 -16 190
-27 183 -6 -3 -8 6 -3 26 8 38 -1 71 -21 71 -16 0 -17 -15 -8 -84 5 -33 10
-43 16 -34 5 8 7 0 3 -22 -3 -19 -1 -69 4 -110 6 -41 12 -106 15 -145 3 -38 8
-95 12 -125 4 -42 3 -52 -6 -44 -6 7 -12 40 -12 75 0 39 -3 56 -7 45 -7 -18
-8 -18 -14 5 -10 35 -8 59 3 34 8 -17 9 -16 9 9 1 24 -1 27 -14 16 -16 -13
-20 -93 -9 -163 l7 -37 403 0 404 0 0 1260 0 1260 -355 0 c-301 0 -355 -2
-355 -14z m641 -958 c1 -491 1 -1023 1 -1183 l-1 -290 -38 0 -38 0 -3 1183 -2
1182 40 0 40 0 1 -892z m-371 638 c0 -3 -4 -8 -10 -11 -5 -3 -10 -1 -10 4 0 6
5 11 10 11 6 0 10 -2 10 -4z m27 -63 c-3 -10 -5 -4 -5 12 0 17 2 24 5 18 2 -7
2 -21 0 -30z m-67 -178 l-4 -50 -6 45 c-3 25 -3 70 0 100 l4 55 6 -50 c3 -27
3 -72 0 -100z m73 120 c-3 -9 -8 -14 -10 -11 -3 3 -2 9 2 15 9 16 15 13 8 -4z
m-6 -122 c-2 -16 -4 -3 -4 27 0 30 2 43 4 28 2 -16 2 -40 0 -55z m76 22 c-3
-9 -8 -14 -10 -11 -3 3 -2 9 2 15 9 16 15 13 8 -4z m-151 -137 c-5 -89 -9 -97
-11 -20 0 39 2 72 7 72 4 0 6 -24 4 -52z m65 -85 c-2 -16 -4 -5 -4 22 0 28 2
40 4 28 2 -13 2 -35 0 -50z m-81 -129 c-3 -8 -11 -14 -18 -13 -10 0 -10 2 0 6
7 3 13 27 14 61 l2 57 3 -49 c2 -27 2 -55 -1 -62z m71 -21 c-3 -10 -5 -2 -5
17 0 19 2 27 5 18 2 -10 2 -26 0 -35z m-122 -3 c-11 -5 -29 -9 -40 -9 l-20 0
20 9 c11 5 29 9 40 9 l20 0 -20 -9z m-95 -22 c-83 -23 -100 -26 -100 -18 0 9
74 28 110 28 19 0 17 -2 -10 -10z m170 -58 c-34 -11 -60 -11 -35 0 11 5 29 8
40 8 16 0 15 -2 -5 -8z m-85 -20 c-11 -5 -29 -9 -40 -9 l-20 0 20 9 c11 5 29
9 40 9 l20 0 -20 -9z m275 -563 c0 -4 -4 -5 -10 -2 -5 3 -10 12 -10 19 0 8 -7
19 -15 26 -8 7 -15 17 -15 23 0 6 11 -4 25 -23 14 -19 25 -38 25 -43z m-69 4
c-7 -14 -16 -62 -21 -106 l-9 -80 3 81 c2 45 9 91 15 103 9 16 9 21 -1 22 -10
0 -10 2 0 6 6 2 13 12 13 21 1 14 2 14 6 -1 3 -10 0 -31 -6 -46z m104 -31 c10
-11 16 -20 13 -20 -3 0 -13 9 -23 20 -10 11 -16 20 -13 20 3 0 13 -9 23 -20z
m-25 -34 c0 -3 -4 -8 -10 -11 -5 -3 -10 -1 -10 4 0 6 5 11 10 11 6 0 10 -2 10
-4z m-33 -183 c-2 -21 -4 -4 -4 37 0 41 2 58 4 38 2 -21 2 -55 0 -75z m-60 0
c-3 -10 -5 -4 -5 12 0 17 2 24 5 18 2 -7 2 -21 0 -30z m10 -55 c-3 -7 -5 -2
-5 12 0 14 2 19 5 13 2 -7 2 -19 0 -25z m60 -40 c-3 -7 -5 -2 -5 12 0 14 2 19
5 13 2 -7 2 -19 0 -25z m-28 -83 c-2 -17 -27 69 -27 90 0 11 6 -2 14 -30 7
-27 13 -54 13 -60z m-325 0 c3 -8 1 -15 -4 -15 -6 0 -10 7 -10 15 0 8 2 15 4
15 2 0 6 -7 10 -15z m-50 -26 c10 -53 7 -79 -9 -79 -12 0 -13 4 -6 18 6 11 6
33 1 55 -4 20 -4 37 0 37 4 0 10 -14 14 -31z m395 -39 c0 -9 -4 -8 -9 5 -5 11
-9 27 -9 35 0 9 4 8 9 -5 5 -11 9 -27 9 -35z m-342 -2 c-3 -7 -5 -2 -5 12 0
14 2 19 5 13 2 -7 2 -19 0 -25z m381 -128 c0 -8 -8 8 -18 35 -10 28 -18 57
-18 65 0 8 8 -7 18 -35 10 -27 18 -57 18 -65z m-358 28 c0 -52 -11 -43 -16 12
-2 25 0 39 6 35 6 -3 10 -25 10 -47z m-44 -108 c4 -41 3 -72 0 -68 -4 3 -9 28
-11 55 -1 26 -5 73 -9 103 -5 45 -4 49 4 20 5 -19 12 -69 16 -110z m111 13
c-3 -10 -5 -4 -5 12 0 17 2 24 5 18 2 -7 2 -21 0 -30z m-60 -5 c-3 -7 -5 -2
-5 12 0 14 2 19 5 13 2 -7 2 -19 0 -25z m423 -13 c0 -5 -5 -3 -10 5 -5 8 -10
20 -10 25 0 6 5 3 10 -5 5 -8 10 -19 10 -25z m-21 -102 c1 -17 -2 -34 -6 -36
-5 -3 -8 14 -8 36 0 23 -3 58 -7 77 -7 33 -7 33 7 -5 7 -22 14 -54 14 -72z
m-392 50 c-3 -10 -5 -4 -5 12 0 17 2 24 5 18 2 -7 2 -21 0 -30z m-50 -85 c-2
-13 -4 -3 -4 22 0 25 2 35 4 23 2 -13 2 -33 0 -45z m60 -10 c-2 -13 -4 -3 -4
22 0 25 2 35 4 23 2 -13 2 -33 0 -45z m-109 -29 c4 -53 -3 -49 -17 9 -7 32 -6
42 2 39 7 -2 13 -23 15 -48z m62 -16 c0 -19 -3 -24 -10 -17 -6 6 -8 18 -4 27
9 24 14 21 14 -10z m497 -10 c-3 -10 -5 -4 -5 12 0 17 2 24 5 18 2 -7 2 -21 0
-30z"/>
<path d="M1476 2483 c-4 -38 -9 -86 -12 -108 -5 -39 -4 -40 10 -15 20 32 20
19 1 -27 -17 -41 -11 -58 11 -28 8 11 14 38 13 60 -1 22 4 67 10 99 8 43 8 63
0 73 -20 24 -27 14 -33 -54z"/>
<path d="M1273 2485 c0 -22 2 -30 4 -17 2 12 2 30 0 40 -3 9 -5 -1 -4 -23z"/>
<path d="M1657 2513 c-11 -10 -8 -53 3 -53 6 0 10 14 10 30 0 31 -2 35 -13 23z"/>
<path d="M1860 2493 c0 -25 1 -26 16 -11 9 9 13 21 10 27 -13 20 -26 11 -26
-16z"/>
<path d="M1621 2494 c0 -11 3 -14 6 -6 3 7 2 16 -1 19 -3 4 -6 -2 -5 -13z"/>
<path d="M1590 2480 c0 -11 2 -20 4 -20 2 0 6 9 9 20 3 11 1 20 -4 20 -5 0 -9
-9 -9 -20z"/>
<path d="M1733 2488 c-4 -7 -9 -30 -10 -50 -2 -30 0 -36 13 -31 10 4 14 17 12
49 -3 49 -4 49 -15 32z"/>
<path d="M1296 2463 c-8 -29 -19 -169 -12 -162 6 6 25 171 20 177 -1 2 -5 -5
-8 -15z"/>
<path d="M1822 2468 c-12 -17 -22 -118 -11 -118 5 0 9 10 9 23 0 18 2 19 10 7
8 -12 10 -10 10 8 0 15 -4 21 -12 16 -8 -5 -9 -2 -5 10 12 30 19 66 14 66 -2
0 -9 -6 -15 -12z"/>
<path d="M1873 2468 c-12 -15 -23 -68 -14 -68 3 0 13 11 22 23 18 25 11 69 -8
45z"/>
<path d="M1702 2450 c0 -14 2 -19 5 -12 2 6 2 18 0 25 -3 6 -5 1 -5 -13z"/>
<path d="M1682 2440 c0 -14 2 -19 5 -12 2 6 2 18 0 25 -3 6 -5 1 -5 -13z"/>
<path d="M1647 2430 c-3 -11 -2 -22 3 -25 4 -3 10 4 13 15 3 11 2 22 -3 25 -4
3 -10 -4 -13 -15z"/>
<path d="M1917 2444 c-4 -4 -7 -34 -7 -67 0 -59 0 -60 20 -42 26 24 28 54 3
34 -16 -12 -16 -11 0 8 10 12 17 31 15 44 -3 23 -19 35 -31 23z"/>
<path d="M1772 2418 c-12 -16 -21 -88 -10 -88 4 0 8 5 8 11 0 5 4 8 8 5 5 -3
9 15 11 40 2 47 0 52 -17 32z"/>
<path d="M1872 2397 c-17 -18 -22 -36 -22 -75 0 -48 2 -52 19 -43 14 8 20 26
24 73 3 35 4 64 3 65 -1 2 -12 -7 -24 -20z"/>
<path d="M1171 2333 c-18 -43 -36 -84 -38 -90 -8 -20 45 -16 56 5 9 17 26 162
19 162 -2 0 -19 -35 -37 -77z"/>
<path d="M1586 2378 c-3 -13 -6 -51 -6 -85 0 -48 -4 -64 -17 -72 -20 -11 -11
-26 10 -18 10 4 16 32 20 98 6 96 4 117 -7 77z"/>
<path d="M1263 2350 c0 -25 2 -35 4 -22 2 12 2 32 0 45 -2 12 -4 2 -4 -23z"/>
<path d="M1714 2363 c-5 -16 -3 -28 4 -31 6 -2 9 -9 6 -17 -3 -7 -1 -15 4 -19
5 -3 9 13 10 35 1 23 4 45 8 50 3 5 -2 9 -10 9 -9 0 -19 -12 -22 -27z"/>
<path d="M1971 2367 c-7 -9 -10 -61 -9 -146 0 -72 -2 -134 -6 -138 -3 -3 -6
-19 -6 -34 0 -19 6 -28 22 -32 12 -4 24 -5 26 -3 2 2 6 59 9 127 l6 124 -22
-19 c-11 -11 -21 -15 -21 -9 0 5 9 18 20 28 20 18 27 66 14 99 -8 20 -18 20
-33 3z"/>
<path d="M1635 2264 c-5 -76 -11 -107 -21 -111 -8 -3 -14 -12 -14 -20 0 -10 6
-12 23 -7 12 3 23 7 24 8 6 5 9 227 3 231 -4 3 -11 -43 -15 -101z"/>
<path d="M1311 2323 c-13 -47 -14 -63 -2 -63 8 0 21 89 15 98 -1 2 -7 -13 -13
-35z"/>
<path d="M1831 2348 c-1 -10 -7 -17 -13 -15 -9 1 -14 -13 -15 -43 -1 -43 -1
-44 7 -10 l7 35 2 -37 c1 -29 -3 -38 -15 -38 -9 0 -14 -6 -11 -12 2 -7 10 -12
17 -10 8 2 10 -3 7 -13 -4 -8 -2 -15 2 -15 11 0 26 142 18 162 -4 9 -6 7 -6
-4z"/>
<path d="M1923 2316 c-20 -25 -23 -40 -23 -122 0 -56 4 -94 10 -94 6 0 10 -4
10 -10 0 -5 -6 -7 -13 -4 -10 3 -14 -9 -16 -48 -2 -29 -6 -82 -9 -118 l-7 -65
-49 -12 c-26 -7 -50 -13 -51 -15 -1 -2 -6 -18 -10 -37 -6 -29 -5 -33 10 -28 9
4 25 7 36 7 13 0 19 7 20 23 1 16 3 17 6 5 3 -13 11 -16 36 -11 18 3 34 8 37
10 3 3 10 55 16 116 9 83 9 116 0 126 -8 11 -8 13 2 7 9 -5 12 3 12 31 0 21 3
55 7 77 6 37 5 38 -18 32 l-24 -7 23 18 c20 17 23 26 20 83 l-3 65 -22 -29z"/>
<path d="M1562 2305 c0 -16 2 -22 5 -12 2 9 2 23 0 30 -3 6 -5 -1 -5 -18z"/>
<path d="M1676 2263 c-15 -134 -17 -185 -6 -178 6 3 10 18 10 33 -1 15 3 63 9
107 5 44 6 84 1 88 -4 5 -10 -18 -14 -50z"/>
<path d="M1757 2308 c-2 -7 0 -21 5 -32 8 -15 12 -16 19 -5 13 22 11 49 -5 49
-8 0 -16 -6 -19 -12z"/>
<path d="M1612 2280 c0 -19 2 -27 5 -17 2 9 2 25 0 35 -3 9 -5 1 -5 -18z"/>
<path d="M1252 2270 c0 -14 2 -19 5 -12 2 6 2 18 0 25 -3 6 -5 1 -5 -13z"/>
<path d="M1705 2185 c-7 -100 -9 -107 -31 -115 -33 -13 -34 -54 -1 -45 12 4
25 10 29 14 9 8 28 166 25 208 -5 69 -15 39 -22 -62z"/>
<path d="M1869 2267 c-9 -7 -18 -29 -22 -49 -5 -32 -3 -38 12 -38 14 0 20 11
25 47 7 53 6 55 -15 40z"/>
<path d="M1551 2244 c0 -11 3 -14 6 -6 3 7 2 16 -1 19 -3 4 -6 -2 -5 -13z"/>
<path d="M1456 2241 c-4 -5 3 -7 14 -4 23 6 26 13 6 13 -8 0 -17 -4 -20 -9z"/>
<path d="M1755 2240 c-4 -6 -9 -56 -12 -111 l-6 -100 -43 -11 c-32 -9 -43 -17
-47 -35 -3 -14 1 -23 9 -23 26 0 44 13 44 31 0 10 5 19 10 19 6 0 10 -7 10
-15 0 -15 35 -21 44 -7 2 4 7 62 10 129 5 112 -1 152 -19 123z"/>
<path d="M48 2233 c6 -2 18 -2 25 0 6 3 1 5 -13 5 -14 0 -19 -2 -12 -5z"/>
<path d="M1520 2229 c0 -5 5 -7 10 -4 6 3 10 8 10 11 0 2 -4 4 -10 4 -5 0 -10
-5 -10 -11z"/>
<path d="M108 2223 c6 -2 18 -2 25 0 6 3 1 5 -13 5 -14 0 -19 -2 -12 -5z"/>
<path d="M1460 2220 c-13 -8 -12 -10 3 -10 9 0 17 5 17 10 0 12 -1 12 -20 0z"/>
<path d="M42 2215 c14 -15 460 -81 603 -89 80 -4 83 -4 30 4 -33 5 -123 17
-200 25 -123 14 -323 44 -410 61 -16 4 -27 3 -23 -1z"/>
<path d="M168 2213 c6 -2 18 -2 25 0 6 3 1 5 -13 5 -14 0 -19 -2 -12 -5z"/>
<path d="M1605 2200 c-4 -12 -5 -24 -2 -27 3 -2 8 5 12 17 4 12 5 24 2 27 -3
2 -8 -5 -12 -17z"/>
<path d="M228 2203 c6 -2 18 -2 25 0 6 3 1 5 -13 5 -14 0 -19 -2 -12 -5z"/>
<path d="M1505 2199 c-4 -6 -5 -12 -2 -15 7 -7 37 7 37 17 0 13 -27 11 -35 -2z"/>
<path d="M288 2193 c6 -2 18 -2 25 0 6 3 1 5 -13 5 -14 0 -19 -2 -12 -5z"/>
<path d="M1330 2190 c0 -5 5 -10 10 -10 6 0 10 5 10 10 0 6 -4 10 -10 10 -5 0
-10 -4 -10 -10z"/>
<path d="M1368 2193 c7 -3 16 -2 19 1 4 3 -2 6 -13 5 -11 0 -14 -3 -6 -6z"/>
<path d="M1454 2185 c-17 -13 -17 -14 -2 -15 9 0 20 5 23 11 11 17 0 20 -21 4z"/>
<path d="M43 2184 c13 -14 574 -95 645 -93 71 1 1 17 -128 28 -69 6 -207 25
-308 41 -189 31 -220 34 -209 24z"/>
<path d="M353 2183 c9 -2 25 -2 35 0 9 3 1 5 -18 5 -19 0 -27 -2 -17 -5z"/>
<path d="M1123 2183 c9 -2 23 -2 30 0 6 3 -1 5 -18 5 -16 0 -22 -2 -12 -5z"/>
<path d="M1554 2176 c-10 -8 -16 -17 -12 -21 8 -8 48 13 48 25 0 14 -13 12
-36 -4z"/>
<path d="M433 2173 c9 -2 25 -2 35 0 9 3 1 5 -18 5 -19 0 -27 -2 -17 -5z"/>
<path d="M998 2173 c6 -2 18 -2 25 0 6 3 1 5 -13 5 -14 0 -19 -2 -12 -5z"/>
<path d="M1400 2170 c0 -5 4 -10 9 -10 6 0 13 5 16 10 3 6 -1 10 -9 10 -9 0
-16 -4 -16 -10z"/>
<path d="M1813 2172 c-13 -8 -39 -239 -28 -250 17 -18 32 36 39 139 3 62 5
113 3 115 -1 2 -8 0 -14 -4z"/>
<path d="M513 2163 c15 -2 37 -2 50 0 12 2 0 4 -28 4 -27 0 -38 -2 -22 -4z"/>
<path d="M1100 2160 c-12 -8 -12 -10 5 -10 11 0 27 5 35 10 12 8 12 10 -5 10
-11 0 -27 -5 -35 -10z"/>
<path d="M1168 2163 c7 -3 16 -2 19 1 4 3 -2 6 -13 5 -11 0 -14 -3 -6 -6z"/>
<path d="M1325 2160 c-3 -5 1 -10 9 -10 9 0 16 5 16 10 0 6 -4 10 -9 10 -6 0
-13 -4 -16 -10z"/>
<path d="M1360 2160 c0 -5 7 -7 15 -4 8 4 15 8 15 10 0 2 -7 4 -15 4 -8 0 -15
-4 -15 -10z"/>
<path d="M1490 2154 c0 -9 7 -14 17 -12 25 5 28 28 4 28 -12 0 -21 -6 -21 -16z"/>
<path d="M1850 2157 c0 -8 7 -21 16 -28 14 -11 15 -10 12 11 -3 26 -28 41 -28
17z"/>
<path d="M40 2151 c0 -5 26 -12 58 -15 31 -4 123 -18 203 -32 206 -34 392 -54
403 -44 10 10 -12 14 -164 30 -58 6 -186 25 -284 41 -195 32 -216 33 -216 20z"/>
<path d="M610 2154 c60 -8 130 -8 130 -1 0 4 -35 6 -77 6 -43 -1 -67 -3 -53
-5z"/>
<path d="M980 2151 c0 -5 9 -7 20 -4 11 3 20 7 20 9 0 2 -9 4 -20 4 -11 0 -20
-4 -20 -9z"/>
<path d="M1043 2153 c9 -2 23 -2 30 0 6 3 -1 5 -18 5 -16 0 -22 -2 -12 -5z"/>
<path d="M1447 2153 c-12 -11 -8 -23 7 -23 8 0 16 7 20 15 5 15 -14 21 -27 8z"/>
<path d="M888 2143 c7 -3 16 -2 19 1 4 3 -2 6 -13 5 -11 0 -14 -3 -6 -6z"/>
<path d="M928 2143 c6 -2 18 -2 25 0 6 3 1 5 -13 5 -14 0 -19 -2 -12 -5z"/>
<path d="M1165 2140 c-19 -8 -19 -9 3 -9 12 -1 22 4 22 9 0 6 -1 10 -2 9 -2 0
-12 -4 -23 -9z"/>
<path d="M1400 2134 c0 -9 5 -14 12 -12 18 6 21 28 4 28 -9 0 -16 -7 -16 -16z"/>
<path d="M1563 2142 c-22 -3 -33 -32 -13 -32 6 0 10 6 10 13 0 8 3 7 10 -3 8
-12 10 -12 16 3 8 22 5 24 -23 19z"/>
<path d="M1085 2130 c-3 -6 5 -10 19 -10 14 0 28 5 31 10 3 6 -5 10 -19 10
-14 0 -28 -4 -31 -10z"/>
<path d="M1360 2125 c0 -8 2 -15 4 -15 2 0 6 7 10 15 3 8 1 15 -4 15 -6 0 -10
-7 -10 -15z"/>
<path d="M800 2119 c0 -5 5 -7 10 -4 6 3 10 8 10 11 0 2 -4 4 -10 4 -5 0 -10
-5 -10 -11z"/>
<path d="M830 2120 c0 -5 4 -10 9 -10 6 0 13 5 16 10 3 6 -1 10 -9 10 -9 0
-16 -4 -16 -10z"/>
<path d="M870 2120 c0 -5 4 -10 9 -10 6 0 13 5 16 10 3 6 -1 10 -9 10 -9 0
-16 -4 -16 -10z"/>
<path d="M910 2120 c0 -5 6 -10 14 -10 8 0 18 5 21 10 3 6 -3 10 -14 10 -12 0
-21 -4 -21 -10z"/>
<path d="M960 2121 c0 -5 9 -7 20 -4 11 3 20 7 20 9 0 2 -9 4 -20 4 -11 0 -20
-4 -20 -9z"/>
<path d="M1033 2123 c9 -2 23 -2 30 0 6 3 -1 5 -18 5 -16 0 -22 -2 -12 -5z"/>
<path d="M1266 2115 c-3 -8 -1 -15 4 -15 6 0 10 7 10 15 0 8 -2 15 -4 15 -2 0
-6 -7 -10 -15z"/>
<path d="M1295 2120 c-3 -5 -1 -10 4 -10 6 0 11 5 11 10 0 6 -2 10 -4 10 -3 0
-8 -4 -11 -10z"/>
<path d="M1320 2120 c0 -5 5 -10 10 -10 6 0 10 5 10 10 0 6 -4 10 -10 10 -5 0
-10 -4 -10 -10z"/>
<path d="M1490 2111 c0 -14 5 -18 20 -14 11 3 20 12 20 19 0 8 -9 14 -20 14
-13 0 -20 -7 -20 -19z"/>
<path d="M1837 2063 c-4 -37 -7 -85 -7 -105 0 -39 -10 -46 -97 -63 -28 -6 -33
-11 -33 -36 0 -18 5 -29 14 -29 29 0 46 13 47 34 0 21 0 21 9 -1 8 -20 12 -21
40 -12 24 9 30 17 31 42 l2 32 6 -35 c10 -55 18 -24 24 90 5 79 4 97 -4 71
-14 -45 -20 -35 -9 14 7 30 6 43 -4 53 -11 11 -14 1 -19 -55z m20 -110 c-3
-10 -5 -4 -5 12 0 17 2 24 5 18 2 -7 2 -21 0 -30z"/>
<path d="M40 2105 c0 -12 13 -15 61 -15 34 0 127 -11 208 -25 121 -20 375 -55
403 -55 4 0 5 6 2 13 -3 9 -42 17 -117 25 -62 7 -194 25 -295 42 -208 34 -262
37 -262 15z"/>
<path d="M1441 2103 c0 -12 2 -14 6 -4 5 11 7 11 15 0 8 -12 9 -12 6 0 -6 22
-28 25 -27 4z"/>
<path d="M1074 2094 c-17 -14 -17 -15 -1 -10 10 3 25 6 33 6 8 0 14 5 14 10 0
15 -24 12 -46 -6z"/>
<path d="M1135 2100 c-4 -6 7 -10 24 -10 17 0 31 5 31 10 0 6 -11 10 -24 10
-14 0 -28 -4 -31 -10z"/>
<path d="M1397 2103 c-12 -11 -8 -23 7 -23 8 0 16 7 20 15 5 15 -14 21 -27 8z"/>
<path d="M1599 2108 c-9 -32 -6 -39 19 -36 37 4 43 38 8 38 -14 0 -26 -1 -27
-2z"/>
<path d="M760 2089 c0 -5 5 -7 10 -4 6 3 10 8 10 11 0 2 -4 4 -10 4 -5 0 -10
-5 -10 -11z"/>
<path d="M790 2089 c0 -5 5 -7 10 -4 6 3 10 8 10 11 0 2 -4 4 -10 4 -5 0 -10
-5 -10 -11z"/>
<path d="M820 2090 c0 -5 5 -10 10 -10 6 0 10 5 10 10 0 6 -4 10 -10 10 -5 0
-10 -4 -10 -10z"/>
<path d="M855 2090 c-3 -5 1 -10 9 -10 8 0 18 5 21 10 3 6 -1 10 -9 10 -8 0
-18 -4 -21 -10z"/>
<path d="M900 2090 c0 -5 6 -10 14 -10 8 0 18 5 21 10 3 6 -3 10 -14 10 -12 0
-21 -4 -21 -10z"/>
<path d="M950 2090 c0 -5 9 -10 20 -10 11 0 20 5 20 10 0 6 -9 10 -20 10 -11
0 -20 -4 -20 -10z"/>
<path d="M1000 2090 c0 -5 11 -10 25 -10 14 0 25 5 25 10 0 6 -11 10 -25 10
-14 0 -25 -4 -25 -10z"/>
<path d="M1326 2091 c-4 -7 -5 -15 -2 -18 9 -9 19 4 14 18 -4 11 -6 11 -12 0z"/>
<path d="M1366 2091 c-4 -7 -5 -15 -2 -18 9 -9 19 4 14 18 -4 11 -6 11 -12 0z"/>
<path d="M1555 2092 c-5 -4 -11 -14 -13 -24 -2 -12 3 -15 18 -11 11 3 20 14
20 24 0 20 -8 24 -25 11z"/>
<path d="M1290 2075 c0 -8 2 -15 4 -15 2 0 6 7 10 15 3 8 1 15 -4 15 -6 0 -10
-7 -10 -15z"/>
<path d="M44 2069 c-3 -6 0 -17 8 -25 11 -12 21 -13 43 -4 30 11 48 10 330
-34 263 -41 306 -45 303 -27 -3 12 -27 19 -109 28 -58 6 -192 25 -297 42 -203
33 -267 38 -278 20z"/>
<path d="M1147 2073 c-4 -3 -27 -5 -51 -5 -31 2 -46 -2 -50 -13 -4 -11 1 -15
18 -15 12 0 26 3 30 7 4 4 25 6 46 4 31 -2 40 1 40 13 0 16 -21 22 -33 9z"/>
<path d="M1480 2060 c0 -22 1 -23 24 -14 23 9 20 34 -4 34 -13 0 -20 -7 -20
-20z"/>
<path d="M775 2060 c-3 -5 -1 -10 4 -10 6 0 11 5 11 10 0 6 -2 10 -4 10 -3 0
-8 -4 -11 -10z"/>
<path d="M805 2059 c-4 -6 -5 -13 -2 -16 7 -7 27 6 27 18 0 12 -17 12 -25 -2z"/>
<path d="M845 2059 c-4 -6 -5 -13 -2 -16 7 -7 27 6 27 18 0 12 -17 12 -25 -2z"/>
<path d="M885 2059 c-4 -6 -4 -13 -1 -16 8 -8 36 5 36 17 0 13 -27 13 -35 -1z"/>
<path d="M937 2063 c-13 -12 -7 -23 13 -23 11 0 20 7 20 15 0 15 -21 21 -33 8z"/>
<path d="M986 2055 c-4 -11 1 -15 18 -15 13 0 26 7 30 15 4 11 -1 15 -18 15
-13 0 -26 -7 -30 -15z"/>
<path d="M1403 2063 c-18 -7 -16 -33 2 -33 8 0 15 9 15 20 0 11 -1 20 -2 19
-2 0 -9 -3 -15 -6z"/>
<path d="M1447 2063 c-13 -13 -7 -32 8 -27 8 4 15 12 15 20 0 15 -12 19 -23 7z"/>
<path d="M1353 2045 c-3 -9 -3 -18 0 -21 9 -9 27 6 27 22 0 19 -19 18 -27 -1z"/>
<path d="M1603 2053 c-7 -2 -13 -13 -13 -24 0 -19 16 -25 36 -11 6 4 11 15 11
25 0 17 -10 20 -34 10z"/>
<path d="M1292 2030 c0 -14 2 -19 5 -12 2 6 2 18 0 25 -3 6 -5 1 -5 -13z"/>
<path d="M1320 2035 c0 -8 2 -15 4 -15 2 0 6 7 10 15 3 8 1 15 -4 15 -6 0 -10
-7 -10 -15z"/>
<path d="M1553 2042 c-30 -4 -32 -42 -3 -42 20 0 36 21 28 37 -1 4 -13 7 -25
5z"/>
<path d="M1177 2034 c-4 -4 -7 -14 -7 -23 0 -11 3 -12 11 -4 6 6 10 16 7 23
-2 6 -7 8 -11 4z"/>
<path d="M1261 2024 c0 -11 3 -14 6 -6 3 7 2 16 -1 19 -3 4 -6 -2 -5 -13z"/>
<path d="M86 2021 c-13 -20 28 -36 83 -33 31 2 142 -10 246 -27 105 -17 215
-33 245 -36 30 -4 65 -8 77 -11 17 -3 20 0 16 16 -3 11 -11 20 -19 20 -28 0
-256 32 -395 55 -152 26 -244 32 -253 16z"/>
<path d="M760 2019 c0 -5 5 -7 10 -4 6 3 10 8 10 11 0 2 -4 4 -10 4 -5 0 -10
-5 -10 -11z"/>
<path d="M790 2014 c0 -8 5 -12 10 -9 6 3 10 10 10 16 0 5 -4 9 -10 9 -5 0
-10 -7 -10 -16z"/>
<path d="M827 2023 c-12 -11 -8 -23 8 -23 8 0 15 7 15 15 0 16 -12 20 -23 8z"/>
<path d="M866 2015 c-4 -10 1 -15 14 -15 11 0 20 7 20 15 0 8 -6 15 -14 15 -8
0 -16 -7 -20 -15z"/>
<path d="M916 2014 c-4 -11 0 -15 16 -12 12 2 23 9 26 16 6 18 -35 15 -42 -4z"/>
<path d="M970 2014 c0 -10 7 -14 22 -12 32 5 35 28 4 28 -17 0 -26 -5 -26 -16z"/>
<path d="M1037 2023 c-14 -13 -6 -23 17 -23 13 0 26 7 30 15 4 11 -1 15 -18
15 -12 0 -26 -3 -29 -7z"/>
<path d="M1096 2014 c-5 -12 1 -15 26 -12 42 4 50 28 10 28 -18 0 -32 -6 -36
-16z"/>
<path d="M1480 2010 c0 -11 4 -20 10 -20 5 0 14 9 20 20 9 17 8 20 -10 20 -13
0 -20 -7 -20 -20z"/>
<path d="M1430 2000 c0 -11 6 -20 14 -20 7 0 16 9 19 20 4 15 0 20 -14 20 -12
0 -19 -7 -19 -20z"/>
<path d="M40 1562 c0 -360 3 -452 12 -446 7 4 96 64 198 134 102 69 206 139
232 156 l47 30 -225 269 c-124 149 -234 279 -245 290 -19 19 -19 13 -19 -433z"/>
<path d="M1350 1990 c0 -11 5 -20 10 -20 6 0 10 9 10 20 0 11 -4 20 -10 20 -5
0 -10 -9 -10 -20z"/>
<path d="M1390 1988 c0 -19 2 -20 10 -8 13 19 13 30 0 30 -5 0 -10 -10 -10
-22z"/>
<path d="M1946 1943 c-4 -38 -10 -88 -14 -112 l-7 -45 -82 -19 c-79 -18 -82
-20 -86 -51 l-4 -31 -1 31 c-2 28 -4 30 -32 26 -25 -4 -30 -9 -30 -33 0 -36 7
-40 69 -32 42 5 55 11 67 32 14 24 14 24 8 3 -5 -20 -3 -23 13 -19 10 3 43 11
75 18 64 14 61 4 74 188 5 74 4 95 -7 102 -30 19 -37 9 -43 -58z"/>
<path d="M1262 1980 c0 -14 2 -19 5 -12 2 6 2 18 0 25 -3 6 -5 1 -5 -13z"/>
<path d="M1285 1987 c-4 -10 -5 -21 -1 -24 10 -10 18 4 13 24 -4 17 -4 17 -12
0z"/>
<path d="M1320 1980 c0 -11 2 -20 4 -20 2 0 6 9 9 20 3 11 1 20 -4 20 -5 0 -9
-9 -9 -20z"/>
<path d="M1603 1990 c-31 -13 -30 -40 2 -40 14 0 25 4 25 9 0 5 3 16 6 25 7
18 0 19 -33 6z"/>
<path d="M806 1975 c-3 -9 0 -15 8 -15 8 0 16 7 20 15 3 9 0 15 -8 15 -8 0
-16 -7 -20 -15z"/>
<path d="M846 1974 c-4 -9 -4 -19 -2 -22 10 -9 36 8 36 23 0 20 -26 19 -34 -1z"/>
<path d="M896 1973 c-9 -22 -8 -23 13 -23 26 0 35 27 11 33 -11 3 -21 -1 -24
-10z"/>
<path d="M1038 1982 c-38 -5 -46 -32 -9 -32 18 0 31 6 35 16 8 20 8 20 -26 16z"/>
<path d="M1080 1969 c-11 -19 -9 -20 22 -17 22 2 34 9 36 21 5 26 -44 23 -58
-4z"/>
<path d="M1157 1983 c-13 -12 -7 -33 8 -33 8 0 15 9 15 20 0 20 -11 26 -23 13z"/>
<path d="M1543 1983 c-7 -2 -13 -15 -13 -28 0 -18 4 -22 20 -18 13 3 20 14 20
29 0 24 -4 27 -27 17z"/>
<path d="M136 1973 c-3 -4 15 -28 41 -55 45 -46 49 -48 104 -48 31 0 94 -6
140 -14 187 -33 371 -57 377 -51 3 3 1 14 -4 23 -8 12 -32 19 -80 25 -38 4
-151 21 -252 37 -100 17 -206 30 -235 31 -36 0 -46 3 -32 8 24 10 51 7 285
-29 102 -16 211 -32 242 -36 53 -6 56 -5 52 13 -5 17 -21 22 -102 32 -53 7
-178 26 -276 42 -181 29 -247 35 -260 22z"/>
<path d="M946 1965 c-4 -11 1 -15 18 -15 13 0 26 7 30 15 4 11 -1 15 -18 15
-13 0 -26 -7 -30 -15z"/>
<path d="M1430 1945 c0 -16 6 -25 15 -25 9 0 15 9 15 25 0 16 -6 25 -15 25 -9
0 -15 -9 -15 -25z"/>
<path d="M1470 1950 c0 -13 7 -20 19 -20 10 0 21 9 24 20 6 25 -1 26 -19 3
-13 -17 -14 -17 -8 0 3 9 1 17 -5 17 -6 0 -11 -9 -11 -20z"/>
<path d="M1728 1963 c-10 -2 -18 -13 -18 -23 0 -10 -5 -22 -12 -26 -8 -5 -9 0
-6 14 4 15 2 22 -7 22 -29 0 -45 -13 -45 -37 0 -22 3 -24 28 -18 15 4 38 9 52
11 44 8 50 13 50 39 0 25 -7 27 -42 18z"/>
<path d="M1348 1935 c-4 -17 -1 -25 8 -25 8 0 14 11 14 25 0 14 -4 25 -9 25
-5 0 -11 -11 -13 -25z"/>
<path d="M1398 1954 c-5 -4 -8 -16 -8 -28 0 -14 3 -17 11 -9 6 6 9 19 7 28 -1
9 -6 13 -10 9z"/>
<path d="M1310 1930 c0 -11 5 -20 10 -20 6 0 10 9 10 20 0 11 -4 20 -10 20 -5
0 -10 -9 -10 -20z"/>
<path d="M830 1926 c0 -24 18 -28 30 -6 9 17 8 20 -10 20 -11 0 -20 -6 -20
-14z"/>
<path d="M876 1924 c-9 -23 -8 -24 13 -24 16 0 31 18 31 36 0 12 -39 2 -44
-12z"/>
<path d="M930 1920 c-9 -17 -8 -20 14 -20 20 0 36 16 36 36 0 14 -41 1 -50
-16z"/>
<path d="M990 1920 c-10 -18 -8 -20 18 -20 21 0 31 6 35 20 4 16 0 20 -19 20
-13 0 -28 -9 -34 -20z"/>
<path d="M1056 1924 c-9 -23 -8 -24 23 -24 24 0 41 14 41 36 0 12 -59 2 -64
-12z"/>
<path d="M1130 1920 c-10 -18 -8 -20 20 -20 23 0 30 4 30 20 0 13 -7 20 -20
20 -10 0 -24 -9 -30 -20z"/>
<path d="M1232 1920 c0 -14 2 -19 5 -12 2 6 2 18 0 25 -3 6 -5 1 -5 -13z"/>
<path d="M1262 1920 c0 -14 2 -19 5 -12 2 6 2 18 0 25 -3 6 -5 1 -5 -13z"/>
<path d="M1598 1929 c-10 -5 -18 -19 -18 -30 0 -34 44 -21 48 14 4 29 -3 32
-30 16z"/>
<path d="M1543 1922 c-17 -3 -23 -10 -23 -28 0 -30 25 -32 40 -3 15 26 10 35
-17 31z"/>
<path d="M1483 1913 c-7 -2 -13 -16 -13 -30 0 -35 34 -27 38 10 3 27 -1 30
-25 20z"/>
<path d="M1427 1903 c-13 -12 -7 -43 8 -43 8 0 15 4 15 9 0 5 3 16 6 25 6 16
-16 23 -29 9z"/>
<path d="M1344 1885 c-7 -16 2 -35 17 -35 5 0 9 5 9 11 0 5 -5 7 -11 3 -8 -4
-9 0 -4 15 7 23 -2 29 -11 6z"/>
<path d="M1380 1875 c0 -16 6 -25 15 -25 9 0 15 9 15 25 0 16 -6 25 -15 25 -9
0 -15 -9 -15 -25z"/>
<path d="M864 1874 c3 -9 6 -18 6 -20 0 -13 19 -1 23 16 4 15 0 20 -15 20 -14
0 -18 -5 -14 -16z"/>
<path d="M906 1874 c-8 -21 -8 -21 14 -27 18 -5 40 16 40 37 0 14 -48 5 -54
-10z"/>
<path d="M970 1870 c-14 -27 -13 -30 14 -30 13 0 27 7 30 16 8 21 8 21 -14 27
-13 3 -24 -1 -30 -13z"/>
<path d="M1145 1882 c-49 -6 -63 -42 -15 -42 19 0 33 7 40 21 14 25 13 25 -25
21z"/>
<path d="M1232 1865 c0 -16 2 -22 5 -12 2 9 2 23 0 30 -3 6 -5 -1 -5 -18z"/>
<path d="M1250 1879 c0 -5 5 -7 10 -4 6 3 10 8 10 11 0 2 -4 4 -10 4 -5 0 -10
-5 -10 -11z"/>
<path d="M1280 1865 c0 -14 2 -25 4 -25 2 0 6 11 8 25 3 14 1 25 -3 25 -5 0
-9 -11 -9 -25z"/>
<path d="M1310 1864 c0 -14 4 -23 10 -19 6 3 10 15 10 26 0 10 -4 19 -10 19
-5 0 -10 -12 -10 -26z"/>
<path d="M1030 1860 c-10 -18 -8 -20 19 -20 20 0 34 7 41 20 10 18 8 20 -19
20 -20 0 -34 -7 -41 -20z"/>
<path d="M1636 1858 c-9 -36 -8 -38 24 -38 27 0 30 3 30 30 0 25 -4 30 -24 30
-16 0 -26 -7 -30 -22z"/>
<path d="M1576 1848 c-9 -35 -8 -38 18 -38 19 0 25 6 28 30 4 26 1 30 -18 30
-14 0 -24 -8 -28 -22z"/>
<path d="M305 1795 c60 -55 76 -64 108 -65 31 0 115 -12 435 -64 26 -4 25 -4
10 28 -7 17 -21 27 -42 30 -17 3 -119 19 -227 36 -108 16 -212 30 -232 30 -20
0 -39 5 -42 11 -8 12 6 10 245 -27 302 -47 283 -46 260 -5 -7 13 -26 20 -72
25 -35 3 -146 20 -248 36 -102 16 -203 30 -225 30 l-39 0 69 -65z"/>
<path d="M1527 1853 c-15 -15 -7 -43 13 -43 15 0 20 6 19 28 0 26 -1 26 -9 5
-12 -28 -20 -30 -13 -3 5 20 2 25 -10 13z"/>
<path d="M1470 1835 c0 -8 9 -15 20 -15 11 0 20 7 20 15 0 8 -9 15 -20 15 -11
0 -20 -7 -20 -15z"/>
<path d="M1345 1829 c-9 -14 -2 -20 14 -10 8 6 9 11 3 15 -6 3 -14 1 -17 -5z"/>
<path d="M1380 1830 c0 -5 7 -10 15 -10 8 0 15 5 15 10 0 6 -7 10 -15 10 -8 0
-15 -4 -15 -10z"/>
<path d="M1420 1831 c0 -10 26 -9 36 2 4 4 -2 7 -14 7 -12 0 -22 -4 -22 -9z"/>
<path d="M907 1809 c4 -16 8 -17 14 -7 13 19 11 28 -5 28 -9 0 -12 -7 -9 -21z"/>
<path d="M947 1823 c-15 -14 -7 -43 13 -43 16 0 40 26 40 44 0 8 -45 7 -53 -1z"/>
<path d="M1010 1821 c0 -5 -3 -16 -6 -25 -5 -12 1 -16 24 -16 27 0 42 14 42
41 0 5 -13 9 -30 9 -16 0 -30 -4 -30 -9z"/>
<path d="M1080 1811 c-15 -29 -13 -31 25 -31 19 0 35 4 35 9 0 5 3 16 6 25 10
25 -52 22 -66 -3z"/>
<path d="M1160 1811 c-6 -12 -8 -27 -4 -33 5 -8 11 -1 16 17 9 36 3 44 -12 16z"/>
<path d="M1252 1810 c0 -14 2 -19 5 -12 2 6 2 18 0 25 -3 6 -5 1 -5 -13z"/>
<path d="M1281 1814 c0 -11 3 -14 6 -6 3 7 2 16 -1 19 -3 4 -6 -2 -5 -13z"/>
<path d="M1310 1819 c0 -5 5 -7 10 -4 6 3 10 8 10 11 0 2 -4 4 -10 4 -5 0 -10
-5 -10 -11z"/>
<path d="M1696 1788 c-7 -38 -4 -42 27 -34 18 4 26 14 29 36 4 27 2 30 -22 30
-23 0 -29 -5 -34 -32z"/>
<path d="M1640 1795 c-17 -21 -8 -50 18 -53 16 -3 22 2 22 16 0 11 3 27 6 36
8 21 -29 22 -46 1z"/>
<path d="M1590 1796 c0 -2 7 -9 15 -16 12 -10 15 -10 15 4 0 9 -7 16 -15 16
-8 0 -15 -2 -15 -4z"/>
<path d="M926 1757 c3 -10 9 -15 12 -12 3 3 0 11 -7 18 -10 9 -11 8 -5 -6z"/>
<path d="M950 1758 c0 -7 5 -20 10 -28 8 -12 10 -9 10 13 0 15 -4 27 -10 27
-5 0 -10 -6 -10 -12z"/>
<path d="M984 1755 c-15 -39 37 -49 54 -10 11 24 10 25 -19 25 -17 0 -32 -6
-35 -15z"/>
<path d="M1052 1745 c-14 -29 -13 -30 36 -10 29 13 34 18 22 25 -26 16 -46 11
-58 -15z"/>
<path d="M1375 1750 c-3 -5 -2 -10 4 -10 5 0 13 5 16 10 3 6 2 10 -4 10 -5 0
-13 -4 -16 -10z"/>
<path d="M1428 1753 c7 -3 16 -2 19 1 4 3 -2 6 -13 5 -11 0 -14 -3 -6 -6z"/>
<path d="M1468 1753 c6 -2 18 -2 25 0 6 3 1 5 -13 5 -14 0 -19 -2 -12 -5z"/>
<path d="M1528 1753 c6 -2 18 -2 25 0 6 3 1 5 -13 5 -14 0 -19 -2 -12 -5z"/>
<path d="M1340 1739 c0 -5 5 -7 10 -4 6 3 10 8 10 11 0 2 -4 4 -10 4 -5 0 -10
-5 -10 -11z"/>
<path d="M1300 1730 c0 -5 5 -10 10 -10 6 0 10 5 10 10 0 6 -4 10 -10 10 -5 0
-10 -4 -10 -10z"/>
<path d="M1430 1730 c-13 -8 -12 -10 3 -10 9 0 17 5 17 10 0 12 -1 12 -20 0z"/>
<path d="M1460 1730 c0 -5 6 -10 14 -10 8 0 18 5 21 10 3 6 -3 10 -14 10 -12
0 -21 -4 -21 -10z"/>
<path d="M1518 1733 c6 -2 18 -2 25 0 6 3 1 5 -13 5 -14 0 -19 -2 -12 -5z"/>
<path d="M1270 1719 c0 -5 5 -7 10 -4 6 3 10 8 10 11 0 2 -4 4 -10 4 -5 0 -10
-5 -10 -11z"/>
<path d="M1660 1721 c0 -6 5 -13 10 -16 6 -3 10 1 10 9 0 9 -4 16 -10 16 -5 0
-10 -4 -10 -9z"/>
<path d="M504 1605 l119 -114 43 30 c23 16 45 29 48 29 3 0 22 10 42 22 38 22
38 22 13 30 -19 6 -16 7 11 4 25 -3 48 3 75 20 22 13 38 24 35 25 -3 0 -21 3
-40 5 -19 3 -119 18 -221 34 -275 44 -266 50 -125 -85z m55 39 c9 -8 -75 -3
-88 5 -8 5 5 7 35 4 27 -3 51 -7 53 -9z m54 -11 c-7 -2 -21 -2 -30 0 -10 3 -4
5 12 5 17 0 24 -2 18 -5z m60 -10 c-7 -2 -21 -2 -30 0 -10 3 -4 5 12 5 17 0
24 -2 18 -5z m60 -10 c-7 -2 -21 -2 -30 0 -10 3 -4 5 12 5 17 0 24 -2 18 -5z
m-125 -50 c-10 -2 -26 -2 -35 0 -10 3 -2 5 17 5 19 0 27 -2 18 -5z m59 -9 c-3
-3 -12 -4 -19 -1 -8 3 -5 6 6 6 11 1 17 -2 13 -5z"/>
<path d="M1460 1695 c0 -8 7 -11 20 -8 11 3 20 8 20 12 0 4 -9 7 -20 8 -11 1
-20 -4 -20 -12z"/>
<path d="M1510 1700 c0 -5 9 -10 20 -10 11 0 20 5 20 10 0 6 -9 10 -20 10 -11
0 -20 -4 -20 -10z"/>
<path d="M1570 1700 c0 -5 10 -10 23 -10 18 0 19 2 7 10 -19 13 -30 13 -30 0z"/>
<path d="M1381 1686 c-16 -19 -11 -29 8 -17 7 5 12 14 9 21 -3 9 -8 7 -17 -4z"/>
<path d="M1415 1690 c-3 -5 3 -10 14 -10 12 0 21 5 21 10 0 6 -6 10 -14 10 -8
0 -18 -4 -21 -10z"/>
<path d="M1060 1674 l-25 -15 25 7 c28 7 35 12 29 18 -2 2 -15 -2 -29 -10z"/>
<path d="M1121 1674 c-19 -8 -31 -17 -28 -20 8 -9 67 16 67 27 0 11 2 11 -39
-7z"/>
<path d="M1341 1681 c-7 -5 -12 -14 -10 -20 3 -6 9 -7 18 -2 7 5 12 14 10 20
-3 6 -9 7 -18 2z"/>
<path d="M1517 1673 c-13 -12 -7 -23 13 -23 11 0 20 7 20 15 0 15 -21 21 -33
8z"/>
<path d="M1577 1672 c-9 -2 -15 -8 -12 -13 8 -12 45 -12 45 0 0 13 -12 18 -33
13z"/>
<path d="M1300 1654 c0 -8 5 -12 10 -9 6 3 10 10 10 16 0 5 -4 9 -10 9 -5 0
-10 -7 -10 -16z"/>
<path d="M1460 1654 c0 -9 7 -14 17 -12 25 5 28 28 4 28 -12 0 -21 -6 -21 -16z"/>
<path d="M1628 1663 c7 -3 16 -2 19 1 4 3 -2 6 -13 5 -11 0 -14 -3 -6 -6z"/>
<path d="M1265 1650 c-3 -5 -1 -10 4 -10 6 0 11 5 11 10 0 6 -2 10 -4 10 -3 0
-8 -4 -11 -10z"/>
<path d="M1410 1650 c0 -5 9 -10 20 -10 11 0 20 5 20 10 0 6 -9 10 -20 10 -11
0 -20 -4 -20 -10z"/>
<path d="M1378 1643 c7 -3 16 -2 19 1 4 3 -2 6 -13 5 -11 0 -14 -3 -6 -6z"/>
<path d="M1523 1633 c-7 -2 -13 -11 -13 -20 0 -20 34 -12 38 10 3 17 -3 20
-25 10z"/>
<path d="M1567 1633 c-14 -13 -6 -23 18 -23 16 0 25 6 25 15 0 15 -31 21 -43
8z"/>
<path d="M1620 1624 c0 -9 5 -14 12 -12 18 6 21 28 4 28 -9 0 -16 -7 -16 -16z"/>
<path d="M1004 1614 c-18 -14 -18 -14 6 -3 31 14 36 19 24 19 -6 0 -19 -7 -30
-16z"/>
<path d="M1080 1616 c0 -12 6 -13 30 -5 17 6 30 13 30 15 0 2 -13 4 -30 4 -20
0 -30 -5 -30 -14z"/>
<path d="M1296 1623 c-9 -9 -7 -33 3 -33 12 0 22 28 12 34 -5 3 -11 3 -15 -1z"/>
<path d="M1330 1620 c0 -6 7 -10 15 -10 8 0 15 2 15 4 0 2 -7 6 -15 10 -8 3
-15 1 -15 -4z"/>
<path d="M1370 1620 c0 -5 7 -7 15 -4 8 4 15 8 15 10 0 2 -7 4 -15 4 -8 0 -15
-4 -15 -10z"/>
<path d="M1460 1609 c0 -14 5 -19 17 -17 26 5 29 38 4 38 -15 0 -21 -6 -21
-21z"/>
<path d="M1061 1604 c0 -11 3 -14 6 -6 3 7 2 16 -1 19 -3 4 -6 -2 -5 -13z"/>
<path d="M1260 1599 c0 -11 5 -17 10 -14 6 3 10 13 10 21 0 8 -4 14 -10 14 -5
0 -10 -9 -10 -21z"/>
<path d="M1417 1613 c-4 -3 -7 -14 -7 -24 0 -25 25 -14 27 11 2 20 -8 26 -20
13z"/>
<path d="M1112 1596 c-22 -12 -20 -26 4 -26 11 0 29 29 22 36 -2 1 -13 -3 -26
-10z"/>
<path d="M1384 1602 c-19 -13 -25 -42 -8 -42 15 0 28 22 22 39 -1 6 -8 7 -14
3z"/>
<path d="M1026 1592 c-3 -5 1 -9 9 -9 8 0 15 4 15 9 0 4 -4 8 -9 8 -6 0 -12
-4 -15 -8z"/>
<path d="M1231 1584 c0 -11 3 -14 6 -6 3 7 2 16 -1 19 -3 4 -6 -2 -5 -13z"/>
<path d="M1620 1578 c0 -19 2 -20 10 -8 13 19 13 30 0 30 -5 0 -10 -10 -10
-22z"/>
<path d="M825 1580 c-3 -6 1 -7 9 -4 18 7 21 14 7 14 -6 0 -13 -4 -16 -10z"/>
<path d="M805 1545 c-83 -46 -101 -53 -89 -34 4 8 0 8 -15 0 -25 -14 -28 -23
-3 -14 15 6 15 5 3 -10 -7 -9 -20 -17 -27 -17 -8 0 -14 -5 -14 -11 0 -11 2
-10 60 26 19 12 62 37 95 55 55 30 86 50 75 50 -3 0 -41 -20 -85 -45z"/>
<path d="M1201 1574 c0 -11 3 -14 6 -6 3 7 2 16 -1 19 -3 4 -6 -2 -5 -13z"/>
<path d="M1328 1565 c-4 -20 -3 -23 8 -14 16 13 19 39 5 39 -5 0 -11 -11 -13
-25z"/>
<path d="M1515 1582 c-13 -9 -16 -42 -4 -42 5 0 9 7 9 15 0 8 7 15 15 15 8 0
15 5 15 10 0 12 -20 13 -35 2z"/>
<path d="M1560 1580 c0 -5 11 -10 25 -10 14 0 25 5 25 10 0 6 -11 10 -25 10
-14 0 -25 -4 -25 -10z"/>
<path d="M875 1556 c-22 -13 -67 -38 -100 -55 -71 -38 -101 -59 -93 -66 5 -5
68 29 138 74 14 9 44 25 68 35 23 11 42 23 42 28 0 13 -12 9 -55 -16z"/>
<path d="M1290 1570 c0 -5 5 -10 10 -10 6 0 10 5 10 10 0 6 -4 10 -10 10 -5 0
-10 -4 -10 -10z"/>
<path d="M1465 1570 c-3 -5 1 -10 9 -10 9 0 16 5 16 10 0 6 -4 10 -9 10 -6 0
-13 -4 -16 -10z"/>
<path d="M1695 1570 c-3 -5 -1 -10 4 -10 6 0 11 5 11 10 0 6 -2 10 -4 10 -3 0
-8 -4 -11 -10z"/>
<path d="M1050 1561 c0 -6 4 -13 10 -16 6 -3 7 1 4 9 -7 18 -14 21 -14 7z"/>
<path d="M1251 1542 c-14 -27 -12 -35 8 -23 7 5 11 17 9 27 -4 17 -5 17 -17
-4z"/>
<path d="M885 1527 c-182 -102 -195 -110 -178 -120 5 -3 49 20 98 49 50 30
102 59 118 65 28 11 37 29 15 29 -7 -1 -31 -11 -53 -23z"/>
<path d="M1217 1537 c-11 -29 -9 -43 4 -30 6 6 9 19 7 29 -3 18 -4 18 -11 1z"/>
<path d="M1280 1540 c0 -5 5 -10 10 -10 6 0 10 5 10 10 0 6 -4 10 -10 10 -5 0
-10 -4 -10 -10z"/>
<path d="M1367 1543 c-13 -12 -7 -43 8 -43 9 0 15 9 15 25 0 24 -10 32 -23 18z"/>
<path d="M1410 1530 c0 -13 5 -18 15 -14 8 4 15 12 15 20 0 8 -7 14 -15 14 -8
0 -15 -9 -15 -20z"/>
<path d="M1450 1540 c0 -5 9 -10 20 -10 11 0 20 5 20 10 0 6 -9 10 -20 10 -11
0 -20 -4 -20 -10z"/>
<path d="M1620 1536 c0 -8 -5 -18 -12 -22 -8 -5 -9 -2 -5 9 5 13 1 17 -18 17
-20 0 -25 -5 -25 -26 0 -23 3 -25 23 -19 12 3 28 7 35 7 11 1 18 48 7 48 -3 0
-5 -6 -5 -14z"/>
<path d="M1686 1534 c-4 -9 -4 -19 -1 -22 2 -3 7 3 11 12 4 9 4 19 1 22 -2 3
-7 -3 -11 -12z"/>
<path d="M1064 1524 c-10 -8 -14 -13 -7 -10 6 4 13 1 15 -5 2 -5 11 -7 20 -4
9 4 14 13 11 21 -7 18 -15 18 -39 -2z"/>
<path d="M1182 1515 c-6 -14 -8 -25 -3 -25 8 0 23 41 17 47 -1 2 -8 -8 -14
-22z"/>
<path d="M1334 1532 c-19 -12 -27 -52 -11 -52 8 0 17 12 20 28 6 31 5 33 -9
24z"/>
<path d="M1710 1525 c0 -8 5 -15 10 -15 6 0 10 7 10 15 0 8 -4 15 -10 15 -5 0
-10 -7 -10 -15z"/>
<path d="M1750 1520 c0 -19 3 -21 12 -12 9 9 9 15 0 24 -9 9 -12 7 -12 -12z"/>
<path d="M956 1521 c-4 -5 0 -12 6 -15 7 -3 3 -3 -10 0 -15 4 -39 -4 -70 -23
-26 -16 -63 -37 -83 -47 -56 -29 -74 -45 -63 -55 9 -9 236 111 242 128 4 13
-15 23 -22 12z"/>
<path d="M1511 1508 c-9 -25 0 -34 24 -24 20 7 19 46 0 46 -9 0 -19 -10 -24
-22z"/>
<path d="M1780 1515 c0 -8 4 -15 10 -15 5 0 7 7 4 15 -4 8 -8 15 -10 15 -2 0
-4 -7 -4 -15z"/>
<path d="M1463 1513 c-21 -8 -15 -33 7 -33 13 0 20 7 20 20 0 20 -5 23 -27 13z"/>
<path d="M1275 1499 c-4 -5 -4 -13 -1 -16 3 -4 6 0 6 8 0 11 2 11 10 -1 6 -9
10 -10 10 -3 0 17 -17 25 -25 12z"/>
<path d="M1418 1503 c-24 -6 -23 -23 2 -23 11 0 20 7 20 15 0 8 -1 14 -2 14
-2 -1 -11 -3 -20 -6z"/>
<path d="M1231 1474 c-12 -27 -7 -45 8 -28 14 14 23 54 13 54 -5 0 -14 -12
-21 -26z"/>
<path d="M895 1439 c-49 -27 -100 -55 -112 -61 -13 -6 -23 -15 -23 -20 0 -24
36 -16 102 23 40 24 90 51 111 62 35 17 45 37 21 44 -5 1 -49 -20 -99 -48z"/>
<path d="M1615 1469 c-4 -12 -2 -26 4 -32 8 -8 11 -2 11 21 0 37 -6 41 -15 11z"/>
<path d="M1682 1470 c0 -14 2 -19 5 -12 2 6 2 18 0 25 -3 6 -5 1 -5 -13z"/>
<path d="M1707 1483 c-4 -3 -7 -13 -7 -22 1 -13 3 -13 11 2 11 19 8 33 -4 20z"/>
<path d="M1736 1474 c-4 -9 -4 -19 -1 -22 2 -3 7 3 11 12 4 9 4 19 1 22 -2 3
-7 -3 -11 -12z"/>
<path d="M1766 1474 c-8 -21 -1 -28 19 -20 9 3 15 11 13 18 -7 19 -25 20 -32
2z"/>
<path d="M1201 1468 c-1 -9 -6 -18 -12 -20 -7 -2 -10 -11 -7 -18 3 -11 8 -9
17 8 7 13 10 28 7 35 -2 7 -5 5 -5 -5z"/>
<path d="M1574 1472 c-15 -10 -28 -52 -15 -52 25 0 41 14 41 36 0 25 -7 29
-26 16z"/>
<path d="M1814 1469 c-3 -6 -1 -16 5 -22 8 -8 11 -5 11 11 0 24 -5 28 -16 11z"/>
<path d="M1313 1458 c-13 -17 -23 -58 -15 -58 16 1 29 17 36 43 7 28 -4 36
-21 15z"/>
<path d="M1348 1445 c-3 -14 -1 -25 3 -25 5 0 9 8 9 18 0 14 2 15 10 2 8 -12
10 -11 10 8 0 30 -26 28 -32 -3z"/>
<path d="M1400 1455 c0 -9 6 -12 15 -9 8 4 15 10 15 15 0 5 -7 9 -15 9 -8 0
-15 -7 -15 -15z"/>
<path d="M1514 1462 c-6 -4 -13 -20 -16 -35 -4 -22 -2 -27 9 -23 8 3 19 6 24
6 5 0 9 14 9 30 0 30 -6 36 -26 22z"/>
<path d="M980 1432 c-138 -78 -181 -104 -178 -107 11 -11 113 23 175 58 62 35
71 43 62 59 -5 10 -11 18 -12 17 -1 -1 -22 -13 -47 -27z"/>
<path d="M1151 1450 c0 -8 4 -22 9 -30 12 -18 12 -2 0 25 -6 13 -9 15 -9 5z"/>
<path d="M1850 1451 c0 -6 4 -13 10 -16 6 -3 7 1 4 9 -7 18 -14 21 -14 7z"/>
<path d="M1267 1443 c-4 -3 -7 -17 -7 -30 0 -12 -5 -22 -11 -20 -6 1 -14 -4
-16 -10 -3 -7 0 -13 7 -13 6 0 8 -4 5 -10 -3 -5 -1 -10 5 -10 7 0 10 6 7 13
-2 6 1 19 8 27 27 32 28 80 2 53z"/>
<path d="M1447 1443 c-4 -3 -7 -19 -7 -34 0 -22 4 -26 20 -22 14 4 20 14 20
34 0 27 -17 39 -33 22z"/>
<path d="M1408 1428 c-18 -15 -33 -68 -19 -68 18 0 41 31 41 56 0 28 -1 28
-22 12z"/>
<path d="M1702 1410 c0 -19 2 -27 5 -17 2 9 2 25 0 35 -3 9 -5 1 -5 -18z"/>
<path d="M1759 1430 c-1 -5 -2 -16 -3 -22 -1 -7 0 -17 3 -22 5 -10 19 19 20
42 1 14 -18 17 -20 2z"/>
<path d="M1225 1419 c-4 -6 -5 -12 -2 -15 2 -3 7 2 10 11 7 17 1 20 -8 4z"/>
<path d="M1681 1414 c0 -11 3 -14 6 -6 3 7 2 16 -1 19 -3 4 -6 -2 -5 -13z"/>
<path d="M1720 1414 c0 -8 5 -12 10 -9 6 3 10 10 10 16 0 5 -4 9 -10 9 -5 0
-10 -7 -10 -16z"/>
<path d="M1790 1420 c0 -5 6 -10 13 -10 8 0 7 -4 -3 -10 -13 -8 -13 -10 1 -10
9 0 20 7 23 16 9 23 8 24 -14 24 -11 0 -20 -4 -20 -10z"/>
<path d="M1353 1394 c-12 -13 -19 -24 -17 -24 3 0 0 -9 -6 -20 -9 -17 -8 -19
12 -11 15 5 25 20 30 42 3 19 6 35 5 36 -1 1 -12 -9 -24 -23z"/>
<path d="M1573 1409 c-17 -6 -23 -16 -23 -39 0 -28 3 -31 23 -24 29 9 29 8 25
42 -3 26 -6 28 -25 21z"/>
<path d="M1610 1390 c0 -20 5 -30 15 -30 16 0 19 17 9 44 -10 26 -24 18 -24
-14z"/>
<path d="M1837 1406 c-3 -8 2 -16 14 -19 14 -4 19 0 19 14 0 22 -25 26 -33 5z"/>
<path d="M503 1389 c-35 -22 -43 -32 -18 -23 31 12 13 -5 -55 -50 -75 -49 -91
-56 -69 -29 8 9 -7 2 -33 -16 -27 -17 -48 -35 -48 -38 0 -3 7 0 15 7 9 7 18
10 21 7 6 -5 -139 -107 -152 -107 -3 0 0 8 7 17 8 9 -7 2 -33 -16 -27 -17 -48
-35 -48 -38 0 -3 7 0 15 7 9 7 18 10 21 7 3 -3 -15 -19 -40 -37 -25 -17 -46
-33 -46 -36 0 -6 12 0 67 38 43 29 58 35 48 18 -4 -6 4 -6 22 1 37 14 403 261
403 272 0 12 -44 -15 -243 -151 -93 -63 -170 -112 -173 -109 -5 4 282 203 369
256 41 25 48 36 16 26 -15 -5 -19 -4 -15 4 10 15 6 14 -31 -10z m22 -9 c-3 -5
-11 -10 -16 -10 -6 0 -7 5 -4 10 3 6 11 10 16 10 6 0 7 -4 4 -10z m-180 -120
c-3 -5 -11 -10 -16 -10 -6 0 -7 5 -4 10 3 6 11 10 16 10 6 0 7 -4 4 -10z
m-190 -130 c-3 -5 -11 -10 -16 -10 -6 0 -7 5 -4 10 3 6 11 10 16 10 6 0 7 -4
4 -10z"/>
<path d="M1008 1384 c-27 -13 -48 -27 -48 -30 0 -8 114 7 124 17 9 8 -10 40
-23 39 -3 -1 -27 -12 -53 -26z"/>
<path d="M1200 1390 c0 -20 -2 -22 -10 -10 -8 13 -10 12 -10 -2 0 -21 13 -23
28 -5 7 8 7 18 2 27 -8 12 -10 9 -10 -10z"/>
<path d="M1890 1396 c0 -8 5 -18 10 -21 6 -3 10 1 10 9 0 8 -4 18 -10 21 -5 3
-10 -1 -10 -9z"/>
<path d="M1513 1389 c-17 -6 -23 -16 -23 -39 0 -33 7 -37 34 -17 11 8 16 23
14 39 -3 22 -6 24 -25 17z"/>
<path d="M1285 1374 c-13 -13 -13 -19 -3 -31 10 -13 14 -13 25 3 27 37 10 59
-22 28z"/>
<path d="M1451 1366 c-7 -8 -16 -27 -20 -44 -8 -26 -7 -29 11 -24 19 5 38 39
38 68 0 18 -14 18 -29 0z"/>
<path d="M1786 1358 c-8 -31 -8 -38 3 -38 12 0 22 43 12 53 -5 5 -11 -2 -15
-15z"/>
<path d="M1750 1340 c0 -16 5 -30 10 -30 6 0 10 14 10 30 0 17 -4 30 -10 30
-5 0 -10 -13 -10 -30z"/>
<path d="M1825 1349 c-4 -11 -4 -23 -1 -26 10 -10 33 5 39 26 7 29 -29 29 -38
0z"/>
<path d="M1880 1361 c0 -5 -3 -16 -6 -25 -5 -12 0 -16 20 -16 19 0 26 5 26 19
0 10 -7 22 -16 25 -21 8 -24 8 -24 -3z"/>
<path d="M1395 1348 c-18 -8 -49 -77 -40 -87 11 -11 53 32 59 60 7 38 7 39
-19 27z"/>
<path d="M435 1250 c-82 -55 -147 -100 -144 -100 28 0 318 176 319 193 1 19
-36 -1 -175 -93z"/>
<path d="M1608 1313 c-3 -21 -4 -39 -3 -41 1 -1 14 2 28 7 22 9 25 14 18 38
-12 44 -38 41 -43 -4z"/>
<path d="M1930 1331 c0 -12 6 -21 16 -21 9 0 14 7 12 17 -5 25 -28 28 -28 4z"/>
<path d="M1563 1330 c-18 -7 -23 -17 -23 -45 0 -33 2 -36 23 -29 27 8 23 2 30
47 6 39 5 41 -30 27z"/>
<path d="M1731 1324 c0 -11 3 -14 6 -6 3 7 2 16 -1 19 -3 4 -6 -2 -5 -13z"/>
<path d="M545 1279 c-103 -65 -110 -73 -49 -51 75 27 144 71 137 88 -3 8 -6
14 -7 14 0 0 -37 -23 -81 -51z"/>
<path d="M1334 1315 c-4 -8 -11 -12 -18 -8 -6 4 -5 -1 3 -10 16 -20 26 -15 34
13 6 23 -11 28 -19 5z"/>
<path d="M1028 1313 c12 -2 32 -2 45 0 12 2 2 4 -23 4 -25 0 -35 -2 -22 -4z"/>
<path d="M1503 1307 c-21 -9 -43 -70 -30 -83 10 -10 48 21 53 43 10 38 2 52
-23 40z"/>
<path d="M1820 1275 c0 -24 5 -35 15 -35 10 0 15 11 15 35 0 24 -5 35 -15 35
-10 0 -15 -11 -15 -35z"/>
<path d="M1867 1303 c-4 -3 -7 -19 -7 -34 0 -22 4 -26 20 -22 11 3 20 11 20
18 0 8 3 20 6 29 4 11 0 16 -13 16 -11 0 -23 -3 -26 -7z"/>
<path d="M903 1293 c9 -2 23 -2 30 0 6 3 -1 5 -18 5 -16 0 -22 -2 -12 -5z"/>
<path d="M993 1291 c-24 -4 -46 -11 -50 -15 -8 -8 88 3 127 15 24 7 24 7 -5 7
-16 0 -49 -4 -72 -7z"/>
<path d="M1123 1293 c9 -2 23 -2 30 0 6 3 -1 5 -18 5 -16 0 -22 -2 -12 -5z"/>
<path d="M1760 1267 c0 -20 4 -37 10 -37 5 0 7 14 3 33 -8 45 -13 47 -13 4z"/>
<path d="M1788 1270 c2 -16 6 -30 8 -30 2 0 4 14 4 30 0 17 -4 30 -8 30 -5 0
-7 -13 -4 -30z"/>
<path d="M1916 1284 c-10 -27 -7 -34 18 -34 24 0 41 23 30 41 -9 15 -41 10
-48 -7z"/>
<path d="M625 1280 c-8 -13 5 -13 25 0 13 8 13 10 -2 10 -9 0 -20 -4 -23 -10z"/>
<path d="M848 1283 c6 -2 18 -2 25 0 6 3 1 5 -13 5 -14 0 -19 -2 -12 -5z"/>
<path d="M1428 1280 c-19 -12 -34 -68 -21 -81 15 -15 44 14 52 54 9 39 2 46
-31 27z"/>
<path d="M1977 1270 c-6 -22 0 -30 24 -30 12 0 16 6 12 19 -7 27 -30 34 -36
11z"/>
<path d="M1073 1270 c-13 -5 -23 -11 -23 -12 0 -2 29 -1 65 0 36 2 65 8 65 13
0 11 -78 11 -107 -1z"/>
<path d="M865 1260 c3 -5 12 -7 20 -3 21 7 19 13 -6 13 -11 0 -18 -4 -14 -10z"/>
<path d="M965 1258 c-79 -12 -101 -33 -25 -23 52 7 90 20 90 30 0 3 -1 4 -2 4
-2 -1 -30 -6 -63 -11z"/>
<path d="M1618 1263 c-10 -2 -18 -14 -18 -26 0 -12 -3 -32 -6 -44 -6 -22 -5
-22 25 -12 23 8 31 17 32 37 2 24 2 24 6 5 2 -13 8 -23 13 -23 4 0 3 16 -3 35
-10 35 -15 37 -49 28z"/>
<path d="M1742 1245 c0 -16 2 -22 5 -12 2 9 2 23 0 30 -3 6 -5 -1 -5 -18z"/>
<path d="M1371 1251 c-10 -6 -10 -10 -1 -16 13 -8 24 -1 19 14 -3 6 -10 7 -18
2z"/>
<path d="M1063 1239 c-34 -4 -70 -12 -81 -18 -10 -5 -28 -7 -40 -4 -12 3 -22
1 -22 -4 0 -19 166 0 210 23 28 15 22 15 -67 3z"/>
<path d="M1170 1240 c-12 -8 -9 -10 13 -10 16 0 26 4 22 10 -8 12 -16 12 -35
0z"/>
<path d="M1553 1240 c-15 -6 -24 -22 -31 -52 -5 -24 -7 -44 -6 -46 7 -10 64
31 64 46 0 9 3 27 6 40 7 24 1 26 -33 12z"/>
<path d="M2030 1240 c0 -5 5 -10 11 -10 5 0 7 5 4 10 -3 6 -8 10 -11 10 -2 0
-4 -4 -4 -10z"/>
<path d="M643 1230 c-35 -14 -27 -20 10 -8 17 6 34 13 36 14 8 7 -24 3 -46 -6z"/>
<path d="M1872 1231 c-16 -10 -12 -63 6 -69 8 -2 12 9 12 37 0 23 -1 41 -2 41
-2 0 -9 -4 -16 -9z"/>
<path d="M1907 1233 c-6 -10 -2 -90 8 -163 9 -69 45 -212 90 -355 67 -216 73
-255 36 -255 -12 -1 -10 -6 9 -22 14 -11 24 -24 23 -29 -3 -9 54 -59 68 -59
15 0 10 44 -15 126 -119 398 -136 476 -132 602 2 81 2 82 -22 82 -24 0 -24 -1
-19 -73 10 -124 28 -201 121 -500 41 -133 46 -187 19 -187 -14 0 -15 2 -4 9
19 12 11 57 -44 231 -65 205 -105 377 -105 454 0 46 -4 66 -12 66 -10 0 -10 2
-1 8 7 4 16 22 19 40 6 28 4 32 -14 32 -12 0 -23 -3 -25 -7z"/>
<path d="M1966 1232 c-3 -3 -6 -18 -6 -34 0 -21 5 -28 20 -28 20 0 45 34 36
49 -7 11 -43 21 -50 13z"/>
<path d="M1825 1208 c2 -13 9 -50 15 -82 13 -76 25 -88 16 -16 -3 30 -6 70 -6
88 0 22 -5 32 -15 32 -11 0 -14 -7 -10 -22z"/>
<path d="M615 1197 c-57 -22 -107 -46 -94 -47 10 0 148 48 166 59 32 18 -7 12
-72 -12z"/>
<path d="M1145 1211 c-27 -3 -61 -14 -75 -25 -20 -14 -21 -17 -5 -12 11 3 53
8 93 12 51 5 72 11 72 20 0 15 -5 15 -85 5z"/>
<path d="M1482 1210 c-31 -13 -49 -54 -32 -75 24 -29 46 -13 58 43 10 45 10
46 -26 32z"/>
<path d="M1772 1205 c0 -11 4 -31 8 -45 6 -20 8 -21 8 -5 0 11 -4 31 -8 45 -6
20 -8 21 -8 5z"/>
<path d="M1805 1172 c4 -54 44 -216 52 -209 2 3 -5 42 -16 88 -11 46 -24 104
-30 129 l-10 45 4 -53z"/>
<path d="M2030 1211 c0 -5 -3 -16 -6 -24 -3 -10 2 -17 13 -20 14 -4 14 -5 -4
-6 -16 -1 -23 -7 -23 -20 0 -11 -3 -26 -6 -35 -5 -12 1 -16 23 -16 22 0 31 6
38 28 14 38 7 80 -16 92 -11 7 -19 7 -19 1z"/>
<path d="M515 1189 c-27 -11 -56 -22 -64 -25 -8 -2 -12 -7 -9 -9 4 -5 126 40
136 50 9 9 -11 4 -63 -16z"/>
<path d="M671 1180 c-65 -30 -44 -33 35 -6 53 19 62 25 39 25 -16 0 -50 -8
-74 -19z"/>
<path d="M1015 1195 c-5 -2 -23 -6 -38 -9 -15 -4 -25 -11 -22 -16 10 -16 42
-12 77 10 25 15 28 20 13 19 -11 0 -24 -2 -30 -4z"/>
<path d="M1751 1184 c0 -11 3 -14 6 -6 3 7 2 16 -1 19 -3 4 -6 -2 -5 -13z"/>
<path d="M1420 1180 c0 -5 5 -10 10 -10 6 0 10 5 10 10 0 6 -4 10 -10 10 -5 0
-10 -4 -10 -10z"/>
<path d="M1655 1148 c-10 -68 -27 -141 -37 -161 -8 -16 -7 -18 14 -13 l23 6
-22 -11 c-28 -15 -28 -17 3 -53 21 -24 28 -27 36 -15 8 11 9 11 4 -3 -7 -24
42 -81 63 -73 8 3 12 3 8 -1 -9 -10 12 -34 31 -34 12 0 13 8 8 42 -4 23 -11
47 -17 54 -5 7 -8 16 -7 21 2 5 -10 50 -27 101 -28 86 -31 91 -55 86 -23 -5
-24 -4 -5 7 11 7 22 13 23 15 7 5 -19 74 -28 74 -4 0 -11 -19 -15 -42z m56
-149 c-3 -4 -17 -10 -31 -13 -25 -6 -25 -6 -2 5 12 7 22 21 23 33 0 21 1 21 9
1 4 -11 5 -23 1 -26z m-17 -53 c-3 -15 -8 -25 -11 -23 -2 3 -1 17 3 31 3 15 8
25 11 23 2 -3 1 -17 -3 -31z"/>
<path d="M2084 1163 c0 -16 -3 -38 -7 -50 -7 -20 -5 -23 20 -24 l28 -1 -30 -7
-30 -6 1 -105 c1 -119 21 -212 104 -480 56 -181 60 -217 21 -212 -14 1 -23 0
-20 -2 20 -20 84 -66 92 -66 16 0 2 62 -58 255 -95 309 -107 399 -79 617 5 38
3 49 -9 54 -9 3 -14 11 -11 18 3 7 -1 18 -9 24 -12 10 -14 7 -13 -15z"/>
<path d="M757 1164 c-16 -9 -27 -17 -25 -20 7 -7 68 17 68 27 0 12 -10 11 -43
-7z"/>
<path d="M1185 1160 l-30 -20 28 0 c16 0 30 7 34 15 9 25 0 26 -32 5z"/>
<path d="M1613 1168 c-25 -12 -56 -98 -40 -109 5 -3 2 -9 -7 -12 -23 -9 -20
-30 8 -56 23 -22 25 -22 34 -4 5 10 13 33 17 51 7 32 6 34 -16 28 -21 -6 -21
-5 4 9 16 10 27 24 27 38 0 12 3 32 6 45 7 24 0 26 -33 10z"/>
<path d="M1060 1159 c-67 -13 -74 -17 -61 -33 14 -17 101 -2 146 26 l30 18
-35 -1 c-19 -1 -55 -5 -80 -10z"/>
<path d="M416 1125 c-101 -44 -123 -64 -33 -30 63 23 117 52 117 61 0 5 6 8
-84 -31z"/>
<path d="M521 1134 c-35 -13 -76 -33 -92 -45 -16 -11 -33 -18 -38 -15 -17 11
-231 -91 -231 -110 0 -9 156 62 192 87 15 11 32 18 36 15 11 -6 150 47 195 74
42 26 17 23 -62 -6z"/>
<path d="M632 1135 c-40 -14 -86 -34 -102 -45 -17 -12 -34 -19 -39 -15 -14 8
-156 -51 -207 -85 -44 -31 -60 -37 -49 -20 6 10 -43 -10 -147 -60 -27 -12 -48
-28 -48 -36 0 -8 2 -14 5 -14 11 0 91 43 132 71 43 30 59 36 48 19 -9 -14 151
55 208 90 51 32 62 36 52 20 -9 -15 165 51 205 77 42 28 35 28 -58 -2z"/>
<path d="M737 1125 c-43 -12 -95 -34 -117 -49 -42 -28 -55 -32 -45 -16 3 6 4
10 1 10 -17 0 -166 -64 -197 -85 -40 -26 -54 -31 -45 -16 4 5 -41 -12 -99 -37
-107 -48 -209 -112 -188 -119 14 -5 141 58 200 98 43 30 59 36 48 19 -3 -5 -4
-10 -2 -10 13 0 212 92 236 109 32 23 46 27 35 10 -4 -7 -1 -10 7 -6 8 3 55
19 104 37 50 17 104 42 120 55 17 14 28 25 25 24 -3 0 -40 -11 -83 -24z m-412
-175 c-3 -5 -11 -10 -16 -10 -6 0 -7 5 -4 10 3 6 11 10 16 10 6 0 7 -4 4 -10z"/>
<path d="M1534 1135 c-17 -7 -34 -20 -37 -28 -6 -17 30 -70 42 -62 10 5 36 94
30 99 -2 3 -18 -2 -35 -9z"/>
<path d="M1870 1128 c0 -25 41 -201 64 -276 8 -26 31 -98 51 -159 39 -125 44
-170 19 -180 -14 -5 -13 -9 7 -24 13 -10 28 -19 33 -19 16 0 -2 82 -53 245
-63 200 -94 329 -99 413 -1 12 -6 22 -12 22 -5 0 -10 -10 -10 -22z"/>
<path d="M305 1105 c-38 -18 -65 -33 -60 -33 13 -1 153 66 140 67 -5 0 -41
-15 -80 -34z"/>
<path d="M1127 1120 c-21 -4 -43 -12 -50 -19 -14 -14 -30 -15 -22 -1 3 6 2 10
-3 10 -18 0 -21 -13 -6 -27 12 -13 25 -13 82 -3 60 10 81 21 82 43 0 8 -30 8
-83 -3z"/>
<path d="M800 1096 c-36 -10 -160 -81 -160 -91 0 -4 204 66 224 77 15 8 16 12
5 19 -16 10 -12 11 -69 -5z"/>
<path d="M1287 1068 c-6 -21 -2 -36 7 -27 10 11 16 49 8 49 -5 0 -12 -10 -15
-22z"/>
<path d="M1802 1070 c0 -14 2 -19 5 -12 2 6 2 18 0 25 -3 6 -5 1 -5 -13z"/>
<path d="M1233 1065 c-3 -9 -3 -18 -1 -21 3 -3 8 4 11 16 6 23 -1 27 -10 5z"/>
<path d="M1256 1064 c-4 -9 -4 -19 -1 -22 2 -3 7 3 11 12 4 9 4 19 1 22 -2 3
-7 -3 -11 -12z"/>
<path d="M2004 1018 c12 -106 43 -235 99 -423 67 -218 72 -255 40 -255 -14 -1
-10 -8 15 -30 69 -64 68 -35 -12 221 -71 229 -97 351 -97 461 0 88 0 88 -26
88 -26 0 -26 0 -19 -62z"/>
<path d="M194 1031 c-45 -21 -84 -43 -88 -49 -8 -13 119 45 155 70 37 26 22
21 -67 -21z"/>
<path d="M867 1059 c-16 -4 -35 -13 -42 -19 -8 -7 -18 -9 -23 -6 -5 3 -56 -10
-113 -29 -74 -25 -127 -52 -186 -92 -46 -31 -83 -58 -83 -59 0 -10 253 102
304 135 37 24 69 41 72 39 3 -3 -11 -16 -30 -28 -20 -12 -36 -23 -36 -25 0 -4
182 56 189 62 3 2 -2 10 -10 17 -9 9 -23 11 -42 5z"/>
<path d="M1103 1063 c-13 -2 -23 -8 -23 -13 0 -18 20 -20 49 -5 42 21 52 19
16 -5 l-30 -20 27 0 c33 0 57 34 32 44 -16 6 -35 6 -71 -1z"/>
<path d="M123 1029 c-34 -15 -64 -33 -68 -39 -4 -6 25 5 64 25 39 19 71 37 71
40 0 6 6 9 -67 -26z"/>
<path d="M587 1025 c-49 -18 -106 -45 -128 -59 -41 -28 -54 -32 -44 -16 5 8
-50 -13 -180 -71 -16 -7 -49 -26 -73 -42 -23 -15 -47 -25 -54 -21 -7 4 -8 3
-4 -4 4 -7 -8 -21 -28 -34 -20 -13 -36 -26 -36 -30 0 -13 215 95 288 144 41
27 76 48 78 45 3 -3 -11 -15 -30 -27 -20 -12 -36 -23 -36 -25 0 -10 252 103
294 132 80 55 77 55 -47 8z"/>
<path d="M1860 1044 c1 -35 59 -238 66 -231 3 2 -10 55 -27 118 -29 107 -39
135 -39 113z"/>
<path d="M1245 1019 c-4 -6 -5 -12 -2 -15 2 -3 7 2 10 11 7 17 1 20 -8 4z"/>
<path d="M1303 1010 c-6 -15 -7 -26 -1 -29 15 -5 20 5 16 31 l-5 23 -10 -25z"/>
<path d="M1450 1020 c0 -5 5 -10 11 -10 5 0 7 5 4 10 -3 6 -8 10 -11 10 -2 0
-4 -4 -4 -10z"/>
<path d="M927 1009 c-9 -6 -21 -7 -27 -4 -5 3 -57 -10 -116 -29 -80 -26 -129
-50 -200 -97 -90 -60 -117 -86 -57 -56 15 8 73 31 128 52 55 20 131 57 168 82
38 24 71 42 74 40 2 -3 -16 -17 -41 -32 -25 -15 -46 -28 -46 -30 0 -4 152 43
158 50 3 3 -1 12 -9 20 -10 10 -19 11 -32 4z"/>
<path d="M1210 1000 c-6 -11 -8 -20 -6 -20 3 0 10 9 16 20 6 11 8 20 6 20 -3
0 -10 -9 -16 -20z"/>
<path d="M1381 1004 c0 -11 3 -14 6 -6 3 7 2 16 -1 19 -3 4 -6 -2 -5 -13z"/>
<path d="M1510 1009 c0 -5 5 -7 10 -4 6 3 10 8 10 11 0 2 -4 4 -10 4 -5 0 -10
-5 -10 -11z"/>
<path d="M1132 999 c2 -6 8 -10 13 -10 5 0 11 4 13 10 2 6 -4 11 -13 11 -9 0
-15 -5 -13 -11z"/>
<path d="M1267 1004 c-4 -4 -7 -14 -7 -23 0 -11 3 -12 11 -4 6 6 10 16 7 23
-2 6 -7 8 -11 4z"/>
<path d="M1225 980 c-3 -5 -1 -10 4 -10 6 0 11 5 11 10 0 6 -2 10 -4 10 -3 0
-8 -4 -11 -10z"/>
<path d="M93 954 c-29 -14 -53 -30 -53 -35 0 -5 3 -9 7 -9 8 0 103 61 103 66
0 5 4 7 -57 -22z"/>
<path d="M1831 964 c0 -11 3 -14 6 -6 3 7 2 16 -1 19 -3 4 -6 -2 -5 -13z"/>
<path d="M869 936 c-85 -26 -126 -45 -200 -96 -120 -81 -125 -86 -59 -60 142
56 205 80 214 80 10 0 166 100 166 106 0 7 -13 4 -121 -30z"/>
<path d="M1275 939 c-9 -17 -15 -33 -13 -35 8 -7 36 21 43 44 10 33 -12 27
-30 -9z"/>
<path d="M1430 963 c0 -4 5 -15 10 -23 8 -13 10 -13 10 2 0 9 -4 20 -10 23 -5
3 -10 3 -10 -2z"/>
<path d="M1490 953 c0 -13 5 -23 10 -23 13 0 13 11 0 30 -8 12 -10 11 -10 -7z"/>
<path d="M1527 956 c-4 -10 -5 -21 -2 -24 9 -9 17 6 13 25 -3 17 -4 17 -11 -1z"/>
<path d="M1560 946 c0 -31 6 -34 13 -6 3 11 1 23 -4 26 -5 3 -9 -6 -9 -20z"/>
<path d="M961 929 c-28 -16 -51 -31 -51 -34 0 -5 99 24 116 34 9 4 9 9 -1 18
-9 9 -24 5 -64 -18z"/>
<path d="M1205 940 c-10 -11 -13 -20 -8 -20 13 0 38 29 31 35 -3 3 -13 -4 -23
-15z"/>
<path d="M1232 930 c-18 -24 -19 -30 -8 -30 9 0 22 14 31 30 9 17 12 30 7 30
-4 0 -18 -13 -30 -30z"/>
<path d="M1318 935 c-3 -14 -1 -25 3 -25 5 0 9 11 9 25 0 14 -2 25 -4 25 -2 0
-6 -11 -8 -25z"/>
<path d="M1862 940 c0 -8 6 -31 13 -50 7 -19 13 -28 13 -20 0 8 -6 31 -13 50
-7 19 -13 28 -13 20z"/>
<path d="M384 886 c-72 -32 -161 -81 -218 -121 -53 -37 -99 -65 -102 -63 -2 3
20 22 51 43 30 21 55 40 55 42 0 1 -29 -12 -65 -29 -36 -18 -65 -38 -65 -45 0
-7 5 -13 11 -13 5 0 7 -4 4 -10 -3 -5 38 11 92 36 54 25 118 55 142 65 47 21
241 151 221 148 -3 0 -60 -24 -126 -53z"/>
<path d="M981 899 c-105 -28 -131 -41 -242 -116 -95 -64 -123 -91 -62 -60 15
8 85 35 155 61 125 44 243 110 232 127 -3 5 -6 9 -7 8 -1 0 -35 -9 -76 -20z"/>
<path d="M1471 893 c-1 -18 4 -33 9 -33 12 0 12 17 0 45 -7 17 -9 15 -9 -12z"/>
<path d="M515 876 c-141 -58 -198 -86 -231 -111 -34 -26 -49 -32 -39 -15 3 5
-41 -12 -97 -39 -91 -42 -103 -51 -106 -75 -3 -27 -1 -26 93 39 53 37 98 65
100 63 3 -3 -27 -26 -65 -52 -39 -27 -70 -50 -70 -53 0 -2 3 -2 8 0 4 3 75 37
159 75 123 57 272 146 328 194 14 12 7 10 -80 -26z"/>
<path d="M1422 890 c0 -14 2 -19 5 -12 2 6 2 18 0 25 -3 6 -5 1 -5 -13z"/>
<path d="M1577 903 c-12 -12 -7 -43 7 -43 9 0 12 8 8 25 -5 27 -6 28 -15 18z"/>
<path d="M1610 885 c1 -26 2 -28 11 -12 8 14 8 22 0 30 -8 8 -11 3 -11 -18z"/>
<path d="M1254 886 c-14 -11 -16 -17 -7 -26 8 -9 14 -7 23 10 15 28 9 34 -16
16z"/>
<path d="M1281 865 c-19 -33 -19 -35 -2 -35 21 0 35 15 45 48 12 36 -19 27
-43 -13z"/>
<path d="M1402 880 c0 -14 2 -19 5 -12 2 6 2 18 0 25 -3 6 -5 1 -5 -13z"/>
<path d="M1535 889 c-4 -6 -3 -15 3 -21 6 -6 11 -4 15 6 7 18 -9 31 -18 15z"/>
<path d="M1037 869 c-22 -11 -37 -22 -35 -25 8 -8 98 28 92 37 -7 12 -13 11
-57 -12z"/>
<path d="M554 821 c-108 -45 -170 -78 -268 -146 -70 -48 -125 -89 -123 -92 3
-2 32 9 65 26 33 17 105 50 159 74 79 35 257 145 308 189 15 13 7 10 -141 -51z"/>
<path d="M1500 870 c0 -5 5 -10 10 -10 6 0 10 5 10 10 0 6 -4 10 -10 10 -5 0
-10 -4 -10 -10z"/>
<path d="M1331 854 c0 -11 3 -14 6 -6 3 7 2 16 -1 19 -3 4 -6 -2 -5 -13z"/>
<path d="M1043 840 c-40 -10 -83 -24 -95 -31 -42 -23 -218 -142 -215 -146 2
-2 44 12 93 30 49 19 121 44 159 57 91 30 161 76 144 96 -6 8 -12 14 -13 13 0
0 -33 -9 -73 -19z"/>
<path d="M1450 830 c0 -14 5 -32 10 -40 8 -12 10 -10 10 10 0 14 -5 32 -10 40
-8 12 -10 10 -10 -10z"/>
<path d="M1510 828 c0 -13 5 -30 10 -38 7 -11 10 -7 10 17 0 17 -4 35 -10 38
-6 3 -10 -4 -10 -17z"/>
<path d="M1580 839 c0 -5 5 -7 10 -4 6 3 10 8 10 11 0 2 -4 4 -10 4 -5 0 -10
-5 -10 -11z"/>
<path d="M642 780 c-78 -32 -161 -70 -183 -84 -22 -15 -44 -24 -48 -22 -5 3
-74 -26 -155 -64 -80 -39 -151 -70 -158 -70 -6 0 -3 9 7 20 12 13 26 18 39 14
15 -4 17 -3 7 4 -10 7 10 25 78 72 50 34 91 64 91 67 0 2 -3 2 -8 0 -32 -20
-247 -117 -258 -117 -12 0 -14 -49 -14 -280 l0 -280 735 0 c404 0 735 3 735 8
0 4 -39 51 -86 106 -47 54 -93 115 -103 135 -15 27 -81 222 -86 251 -15 83
-15 82 -48 77 -31 -6 -31 -5 -7 6 14 6 26 12 28 13 7 5 -11 74 -19 74 -5 0
-26 -7 -47 -17 -20 -9 -41 -15 -46 -14 -13 3 -161 -48 -271 -94 -73 -30 -148
-74 -277 -164 -98 -68 -176 -127 -173 -131 5 -8 -45 -33 -52 -26 -6 6 72 63
230 170 64 44 115 81 113 83 -3 3 -224 -96 -312 -140 -142 -71 -119 -41 64 85
154 106 162 111 162 104 0 -3 -61 -46 -135 -97 -74 -51 -133 -94 -131 -96 2
-3 31 9 64 26 33 16 130 61 215 100 108 48 195 96 282 156 69 47 122 85 118
85 -4 0 -62 -21 -130 -46 -68 -25 -128 -42 -135 -38 -6 4 -8 3 -4 -4 3 -6 -4
-14 -16 -17 -13 -4 -43 -19 -68 -33 -25 -15 -54 -28 -66 -29 -11 -1 -91 -35
-177 -77 -165 -79 -197 -92 -197 -80 0 9 12 18 162 121 70 48 126 88 124 90
-2 2 -75 -30 -162 -72 -87 -42 -165 -74 -174 -73 -8 2 45 45 118 96 74 52 136
92 138 89 3 -2 -43 -37 -101 -76 -58 -40 -105 -74 -105 -76 0 -3 35 12 78 31
42 20 125 58 183 84 89 40 362 212 333 209 -5 0 -73 -27 -152 -59z m444 -196
c-38 -13 -71 -22 -73 -20 -5 5 107 44 127 44 8 0 -16 -10 -54 -24z m-87 -28
c-2 -3 -40 -18 -83 -35 -44 -17 -97 -42 -119 -57 -22 -14 -36 -21 -33 -15 10
15 0 14 -35 -5 -17 -8 -33 -13 -35 -11 -3 2 26 17 63 33 37 15 87 40 111 56
24 15 40 24 37 18 -9 -14 7 -12 46 5 33 14 57 19 48 11z m31 -96 c-8 -5 -19
-10 -25 -10 -5 0 -3 5 5 10 8 5 20 10 25 10 6 0 3 -5 -5 -10z m-60 -22 c-14
-7 -40 -20 -57 -31 -18 -10 -33 -15 -33 -10 0 11 79 52 100 52 8 0 4 -5 -10
-11z m-330 -33 c-25 -13 -49 -24 -55 -24 -5 0 10 11 35 24 25 13 50 24 55 24
6 0 -10 -11 -35 -24z m80 10 c0 -2 -28 -23 -62 -46 -35 -23 -58 -36 -52 -30
10 11 105 79 112 80 1 1 2 -1 2 -4z m-230 -80 c-47 -24 -89 -44 -95 -44 -5 0
28 20 75 44 47 24 90 44 95 44 6 0 -28 -20 -75 -44z m320 35 c-8 -5 -19 -10
-25 -10 -5 0 -3 5 5 10 8 5 20 10 25 10 6 0 3 -5 -5 -10z m245 -10 c-3 -5 -12
-10 -18 -10 -7 0 -6 4 3 10 19 12 23 12 15 0z m-35 -15 c0 -2 -10 -9 -22 -15
-22 -11 -22 -10 -4 4 21 17 26 19 26 11z m-310 -20 c-14 -8 -29 -14 -35 -14
-5 0 1 6 15 14 14 8 30 14 35 14 6 0 -1 -6 -15 -14z m-180 -39 c0 -3 -15 -14
-32 -26 l-33 -22 30 26 c31 27 35 29 35 22z m50 -21 c-25 -13 -49 -24 -55 -24
-5 0 10 11 35 24 25 13 50 24 55 24 6 0 -10 -11 -35 -24z m-75 -35 c-3 -5 -12
-10 -18 -10 -7 0 -6 4 3 10 19 12 23 12 15 0z m-77 -22 c-3 -15 -18 -28 -32
-28 -5 0 -1 9 9 20 21 23 26 25 23 8z m62 -98 c0 -5 -5 -10 -11 -10 -5 0 -7 5
-4 10 3 6 8 10 11 10 2 0 4 -4 4 -10z"/>
<path d="M1432 810 c0 -19 2 -27 5 -17 2 9 2 25 0 35 -3 9 -5 1 -5 -18z"/>
<path d="M1627 834 c-13 -13 -7 -44 8 -44 16 0 17 5 6 33 -3 10 -10 15 -14 11z"/>
<path d="M1658 815 c2 -14 8 -25 13 -25 5 0 9 11 9 25 0 14 -6 25 -14 25 -9 0
-12 -8 -8 -25z"/>
<path d="M1310 814 c-11 -12 -11 -18 2 -31 15 -14 17 -13 27 6 8 15 9 21 1 21
-6 0 -8 5 -5 10 10 16 -11 11 -25 -6z"/>
<path d="M1486 812 c-4 -13 -5 -26 -2 -29 10 -11 18 4 14 29 l-4 23 -8 -23z"/>
<path d="M1120 805 c-14 -8 -19 -14 -10 -14 8 0 26 6 40 14 14 8 19 14 10 14
-8 0 -26 -6 -40 -14z"/>
<path d="M1550 806 c0 -9 5 -16 10 -16 6 0 10 4 10 9 0 6 -4 13 -10 16 -5 3
-10 -1 -10 -9z"/>
<path d="M1586 805 c4 -8 10 -12 15 -9 11 6 2 24 -11 24 -5 0 -7 -7 -4 -15z"/>
<path d="M1901 810 c0 -8 4 -22 9 -30 12 -18 12 -2 0 25 -6 13 -9 15 -9 5z"/>
<path d="M63 798 c-13 -6 -23 -15 -23 -20 0 -5 11 -1 25 8 37 24 35 30 -2 12z"/>
<path d="M1700 801 c0 -5 5 -13 10 -16 6 -3 10 -2 10 4 0 5 -4 13 -10 16 -5 3
-10 2 -10 -4z"/>
<path d="M1931 795 c0 -5 11 -48 24 -94 30 -103 32 -141 8 -141 -15 0 -13 -4
7 -20 40 -30 46 -9 22 77 -24 88 -60 193 -61 178z"/>
<path d="M720 727 c-135 -54 -175 -77 -312 -171 -87 -60 -158 -110 -158 -112
0 -3 23 7 267 119 114 52 311 170 368 219 20 17 -15 6 -165 -55z"/>
<path d="M1096 774 c-26 -9 -105 -54 -175 -101 -69 -47 -117 -82 -106 -78 11
4 97 34 190 67 94 32 174 63 178 67 13 13 -4 61 -22 60 -9 0 -38 -7 -65 -15z"/>
<path d="M1554 749 c3 -17 6 -43 7 -58 1 -26 1 -26 10 4 10 34 3 85 -13 85 -6
0 -8 -12 -4 -31z"/>
<path d="M1594 745 c1 -21 6 -35 14 -35 16 0 15 30 -2 52 -11 15 -12 13 -12
-17z"/>
<path d="M1633 758 c2 -12 10 -24 18 -26 12 -3 12 -2 0 6 -11 8 -11 10 0 14 7
2 9 10 5 16 -12 20 -26 14 -23 -10z"/>
<path d="M1335 761 c-3 -5 -2 -12 3 -15 5 -3 9 1 9 9 0 17 -3 19 -12 6z"/>
<path d="M1490 738 c0 -21 5 -38 10 -38 13 0 13 40 0 60 -7 11 -10 5 -10 -22z"/>
<path d="M1677 748 c-7 -26 -1 -38 20 -38 11 0 13 5 8 18 -4 9 -8 23 -8 30 -1
20 -14 14 -20 -10z"/>
<path d="M1718 765 c-3 -3 -3 -16 -1 -29 4 -18 11 -23 29 -21 20 2 24 -3 30
-41 6 -41 24 -63 24 -30 0 8 3 21 6 30 4 11 1 16 -11 16 -9 0 -14 4 -11 9 3 4
-1 17 -9 27 -8 11 -14 14 -15 7 0 -25 -20 -13 -20 12 0 23 -10 32 -22 20z"/>
<path d="M1441 744 c0 -11 3 -14 6 -6 3 7 2 16 -1 19 -3 4 -6 -2 -5 -13z"/>
<path d="M1468 755 c-3 -6 -3 -35 1 -65 3 -30 9 -48 11 -40 8 21 -4 117 -12
105z"/>
<path d="M1530 740 c-1 -8 -2 -37 0 -65 2 -57 20 -89 19 -34 0 41 -16 120 -19
99z"/>
<path d="M1832 735 c-11 -12 -10 -15 3 -15 8 0 15 7 15 15 0 18 -2 18 -18 0z"/>
<path d="M1858 725 c-6 -30 -3 -43 8 -33 3 4 4 19 2 35 l-3 28 -7 -30z"/>
<path d="M1881 734 c0 -11 3 -14 6 -6 3 7 2 16 -1 19 -3 4 -6 -2 -5 -13z"/>
<path d="M1901 734 c0 -11 3 -14 6 -6 3 7 2 16 -1 19 -3 4 -6 -2 -5 -13z"/>
<path d="M1920 750 c0 -3 7 -30 15 -60 18 -68 18 -65 0 -84 -14 -13 -13 -16 6
-26 11 -7 23 -9 26 -6 7 6 -25 143 -38 166 -5 8 -8 13 -9 10z"/>
<path d="M1422 710 c0 -14 2 -19 5 -12 2 6 2 18 0 25 -3 6 -5 1 -5 -13z"/>
<path d="M1911 678 c-1 -20 -7 -38 -13 -40 -8 -3 -4 -9 10 -17 21 -11 22 -10
21 21 0 18 -4 42 -9 53 -7 16 -9 13 -9 -17z"/>
<path d="M1601 678 c0 -13 4 -41 8 -63 l7 -40 8 42 c8 44 1 83 -15 83 -5 0 -9
-10 -8 -22z"/>
<path d="M1690 685 c9 -10 9 -15 1 -15 -14 0 -14 -10 -1 -30 8 -12 12 -12 18
-2 13 19 2 62 -15 62 -13 0 -13 -3 -3 -15z"/>
<path d="M1734 676 c-7 -29 1 -46 23 -46 10 0 13 6 9 16 -3 9 -6 24 -6 35 0
27 -18 24 -26 -5z"/>
<path d="M1881 686 c-11 -13 -11 -20 -3 -28 8 -8 13 -7 18 5 10 27 0 41 -15
23z"/>
<path d="M1654 666 c-9 -39 6 -183 17 -165 7 9 8 1 3 -24 -8 -46 4 -149 17
-142 5 4 7 -23 4 -67 -3 -40 -2 -108 1 -150 6 -68 9 -78 26 -78 14 0 18 5 13
19 -3 10 -8 59 -11 107 -2 49 -6 103 -8 119 -2 17 -7 68 -10 114 -4 46 -10 89
-13 95 -4 6 -8 29 -9 51 -2 47 -15 138 -20 144 -1 2 -6 -9 -10 -23z m53 -458
c-3 -7 -5 -2 -5 12 0 14 2 19 5 13 2 -7 2 -19 0 -25z m10 -40 c-3 -8 -6 -5 -6
6 -1 11 2 17 5 13 3 -3 4 -12 1 -19z"/>
<path d="M1453 645 c0 -22 2 -30 4 -17 2 12 2 30 0 40 -3 9 -5 -1 -4 -23z"/>
<path d="M1504 623 c10 -83 11 -92 19 -99 4 -4 4 22 1 57 -4 35 -6 72 -6 82 0
9 -4 17 -10 17 -7 0 -8 -19 -4 -57z"/>
<path d="M1576 662 c-11 -32 3 -147 16 -134 7 7 7 36 1 84 -7 56 -11 68 -17
50z"/>
<path d="M1332 625 c0 -11 3 -29 8 -40 11 -25 11 1 0 35 -6 20 -8 21 -8 5z"/>
<path d="M1312 610 c0 -14 2 -19 5 -12 2 6 2 18 0 25 -3 6 -5 1 -5 -13z"/>
<path d="M1480 601 c0 -17 4 -32 8 -35 4 -2 6 11 4 30 -5 42 -12 45 -12 5z"/>
<path d="M1690 604 c0 -8 5 -12 10 -9 6 3 10 10 10 16 0 5 -4 9 -10 9 -5 0
-10 -7 -10 -16z"/>
<path d="M1712 590 c-11 -34 -11 -51 5 -155 7 -50 8 -58 11 -125 3 -45 17 -69
32 -54 8 8 8 31 0 85 -6 41 -13 94 -16 119 -2 25 -8 72 -12 105 l-8 60 -12
-35z m25 -192 c-3 -8 -6 -5 -6 6 -1 11 2 17 5 13 3 -3 4 -12 1 -19z"/>
<path d="M1546 585 c-8 -21 4 -94 16 -101 7 -5 1 106 -7 114 -1 2 -5 -4 -9
-13z"/>
<path d="M1626 567 c-5 -20 -5 -63 0 -95 5 -31 7 -64 6 -74 -1 -9 5 -22 13
-28 13 -11 15 -8 15 19 0 17 -4 31 -9 31 -6 0 -8 15 -5 33 3 17 1 59 -4 92
l-9 60 -7 -38z"/>
<path d="M1352 545 c0 -11 4 -31 8 -45 l8 -25 0 25 c0 14 -3 34 -8 45 l-9 20
1 -20z"/>
<path d="M1331 524 c0 -11 3 -14 6 -6 3 7 2 16 -1 19 -3 4 -6 -2 -5 -13z"/>
<path d="M1592 468 c2 -23 8 -43 13 -45 6 -2 9 15 7 42 -2 25 -8 45 -14 45 -5
0 -8 -19 -6 -42z"/>
<path d="M1341 484 c0 -11 3 -14 6 -6 3 7 2 16 -1 19 -3 4 -6 -2 -5 -13z"/>
<path d="M1492 465 c0 -16 4 -43 8 -60 l8 -30 0 35 c0 19 -4 46 -8 60 -8 24
-8 24 -8 -5z"/>
<path d="M1467 430 c3 -30 7 -57 9 -59 9 -10 3 85 -6 99 -6 10 -7 -3 -3 -40z"/>
<path d="M1351 444 c0 -11 3 -14 6 -6 3 7 2 16 -1 19 -3 4 -6 -2 -5 -13z"/>
<path d="M1442 415 c0 -16 2 -22 5 -12 2 9 2 23 0 30 -3 6 -5 -1 -5 -18z"/>
<path d="M1361 410 c0 -8 4 -22 9 -30 12 -18 12 -2 0 25 -6 13 -9 15 -9 5z"/>
<path d="M1562 355 c0 -27 6 -72 13 -100 l13 -50 1 50 c0 28 -6 73 -13 100
l-14 50 0 -50z"/>
<path d="M1606 320 c4 -41 6 -107 5 -145 -1 -39 3 -83 9 -99 9 -24 8 -27 -5
-22 -8 3 -15 1 -15 -4 0 -6 21 -10 46 -10 45 0 45 1 40 27 -4 16 -8 73 -11
128 -3 92 -16 155 -31 155 -3 0 -2 -14 1 -31 9 -40 12 -269 4 -269 -10 0 -20
95 -23 205 -1 59 -7 108 -15 120 -10 17 -11 7 -5 -55z m61 -142 c-3 -7 -5 -2
-5 12 0 14 2 19 5 13 2 -7 2 -19 0 -25z"/>
<path d="M1451 354 c0 -11 3 -14 6 -6 3 7 2 16 -1 19 -3 4 -6 -2 -5 -13z"/>
<path d="M1532 325 c0 -27 4 -63 8 -80 6 -26 8 -23 8 20 0 28 -4 64 -8 80 -6
26 -8 23 -8 -20z"/>
<path d="M1501 300 c0 -25 4 -52 9 -60 7 -11 9 -8 9 15 -1 17 -5 44 -9 60 -7
27 -8 26 -9 -15z"/>
<path d="M1470 287 c0 -20 4 -38 9 -42 6 -3 7 10 4 32 -8 50 -13 55 -13 10z"/>
<path d="M1452 260 c0 -14 2 -19 5 -12 2 6 2 18 0 25 -3 6 -5 1 -5 -13z"/>
<path d="M1441 204 c0 -11 3 -14 6 -6 3 7 2 16 -1 19 -3 4 -6 -2 -5 -13z"/>
<path d="M1472 190 c0 -14 2 -19 5 -12 2 6 2 18 0 25 -3 6 -5 1 -5 -13z"/>
<path d="M1501 183 c-1 -17 4 -35 9 -38 11 -7 11 9 0 45 -8 24 -8 24 -9 -7z"/>
<path d="M1532 185 c0 -16 4 -41 8 -55 7 -23 8 -22 8 10 0 19 -3 44 -8 55 -7
17 -9 15 -8 -10z"/>
<path d="M1571 160 c0 -25 4 -54 9 -65 6 -15 9 -9 9 25 0 25 -4 54 -9 65 -6
15 -9 9 -9 -25z"/>
<path d="M1491 130 c0 -8 4 -22 9 -30 12 -18 12 -2 0 25 -6 13 -9 15 -9 5z"/>
<path d="M1521 112 c-1 -7 4 -23 10 -34 9 -16 8 -23 -2 -29 -10 -6 -10 -9 -2
-9 21 0 24 18 9 52 -8 18 -15 27 -15 20z"/>
<path d="M1560 67 c0 -18 5 -27 15 -27 13 0 14 4 4 23 -17 33 -19 33 -19 4z"/>
</g>
</svg>
